<svg width="1491" height="336" viewBox="0 0 1491 336" fill="none" xmlns="http://www.w3.org/2000/svg">
<path d="M430.464 241.215C400.16 241.215 375.468 222.977 375.468 173.313V171.068C375.468 123.088 400.721 103.446 435.795 103.446C454.594 103.446 466.94 108.778 475.919 114.951V42.5588H483.214V238.971H476.761L476.48 226.344H475.919C465.256 234.481 451.788 241.215 430.464 241.215ZM432.147 235.323C451.508 235.323 465.256 228.308 475.919 219.61V121.965C466.94 114.389 453.752 109.619 436.075 109.619C404.649 109.619 383.044 126.455 383.044 170.226V173.594C383.044 218.207 403.246 235.323 432.147 235.323ZM577.687 241.776C543.455 241.776 519.605 219.891 519.605 174.716V171.629C519.605 126.735 545.139 104.008 577.687 104.008C611.919 104.008 636.049 125.894 636.049 171.068V173.594C636.049 218.768 610.516 241.776 577.687 241.776ZM577.687 235.884C607.71 235.884 629.315 215.401 629.315 174.155V170.507C629.315 127.577 607.71 109.9 577.687 109.9C547.945 109.9 526.339 130.944 526.339 171.349V175.277C526.339 216.804 547.664 235.884 577.687 235.884ZM673.843 238.971V42.5588H681.138V238.971H673.843ZM752.969 238.971L684.506 169.665L749.602 105.411H758.3L692.643 169.385L762.228 238.971H752.969ZM829.489 240.935C810.128 240.935 801.149 231.956 801.149 214.559V112.145H780.947V105.691H801.149V73.9847H808.164V105.691H846.885V112.145H808.164V213.437C808.164 228.308 813.214 234.481 830.891 234.481C837.345 234.481 844.36 233.078 849.691 231.395V237.006C845.763 238.409 838.187 240.935 829.489 240.935ZM932.806 241.776C898.575 241.776 874.725 219.891 874.725 174.716V171.629C874.725 126.735 900.258 104.008 932.806 104.008C967.038 104.008 991.169 125.894 991.169 171.068V173.594C991.169 218.768 965.635 241.776 932.806 241.776ZM932.806 235.884C962.829 235.884 984.435 215.401 984.435 174.155V170.507C984.435 127.577 962.829 109.9 932.806 109.9C903.064 109.9 881.459 130.944 881.459 171.349V175.277C881.459 216.804 902.783 235.884 932.806 235.884ZM1027 239.812V105.972H1034.01V123.088H1034.57C1042.99 114.109 1058.14 104.569 1076.38 104.569C1079.19 104.569 1082.27 104.849 1083.96 105.411V111.864C1081.71 111.303 1078.63 110.742 1076.1 110.742C1058.99 110.742 1043.83 119.159 1034.29 129.822V239.812H1027ZM1170.75 243.46C1127.54 243.46 1105.66 218.207 1105.66 173.874V170.788C1105.66 122.807 1133.16 100.921 1165.42 100.921C1202.74 100.921 1219.86 123.929 1219.86 165.176V173.594H1120.53C1120.53 213.437 1137.93 230.553 1172.72 230.553C1191.24 230.553 1204.42 226.344 1215.37 220.732V232.236C1206.95 237.287 1191.8 243.46 1170.75 243.46ZM1164.86 112.986C1143.26 112.986 1123.05 126.735 1120.81 161.809H1204.71C1204.71 129.261 1191.8 112.986 1164.86 112.986ZM1251.37 241.215V40.3141H1265.96V241.215H1251.37ZM1333.3 241.215L1269.89 169.665L1329.93 103.446H1346.21L1286.16 168.824L1350.14 241.215H1333.3ZM1420.42 282.462C1378.05 282.462 1360.38 268.432 1360.38 248.791C1360.38 232.517 1372.44 223.258 1387.59 217.365V216.524C1380.02 214.84 1373.56 208.948 1373.56 199.969C1373.56 191.551 1378.62 185.378 1387.87 178.083C1377.49 171.349 1370.48 159.845 1370.48 144.693V142.168C1370.48 115.231 1391.8 100.921 1421.26 100.921C1427.72 100.921 1433.61 101.482 1439.5 103.166H1485.24V114.109H1457.18C1465.88 120.843 1470.65 130.383 1470.65 143.29V144.132C1470.65 171.91 1449.32 186.501 1420.98 186.501C1411.72 186.501 1403.31 185.098 1395.73 182.292C1391.24 185.659 1387.59 189.868 1387.59 194.918C1387.59 202.494 1392.93 206.703 1403.03 206.703H1442.59C1467 206.703 1485.24 214.559 1485.24 240.374C1485.24 263.382 1466.44 282.462 1420.42 282.462ZM1419.86 270.396C1456.62 270.396 1469.81 258.892 1469.81 242.338C1469.81 224.941 1459.71 220.452 1440.34 220.452H1399.66C1386.19 224.941 1375.81 232.798 1375.81 246.827C1375.81 261.418 1387.31 270.396 1419.86 270.396ZM1420.98 175.277C1442.59 175.277 1456.34 164.895 1456.34 144.693V143.009C1456.34 121.965 1442.03 112.425 1420.98 112.425C1399.38 112.425 1385.63 123.088 1385.63 142.729V144.412C1385.63 164.895 1399.94 175.277 1420.98 175.277Z" fill="#0C71C3"/>
<mask id="mask0_2610_106" style="mask-type:luminance" maskUnits="userSpaceOnUse" x="15" y="15" width="290" height="99">
<path d="M300.242 113.199C303.668 111.684 305.231 107.672 303.573 104.313C290.863 78.5604 271.443 56.6575 247.307 40.9449C221.271 23.9971 190.872 14.9831 159.807 15C128.742 15.0169 98.3515 24.0641 72.335 41.0402C48.2153 56.7789 28.8194 78.7031 16.1378 104.469C14.4836 107.83 16.0509 111.841 19.4788 113.351C22.9068 114.862 26.896 113.299 28.5634 109.945C40.1755 86.5831 57.8313 66.702 79.7485 52.4008C103.562 36.862 131.379 28.5809 159.814 28.5654C188.249 28.5499 216.075 36.8007 239.906 52.3138C261.838 66.5912 279.516 86.4531 291.153 109.802C292.824 113.155 296.815 114.713 300.242 113.199Z" fill="white"/>
</mask>
<g mask="url(#mask0_2610_106)">
<path d="M300.242 113.199C303.668 111.684 305.231 107.672 303.573 104.313C290.863 78.5604 271.443 56.6575 247.307 40.9449C221.271 23.9971 190.872 14.9831 159.807 15C128.742 15.0169 98.3515 24.0641 72.335 41.0402C48.2153 56.7789 28.8194 78.7031 16.1378 104.469C14.4836 107.83 16.0509 111.841 19.4788 113.351C22.9068 114.862 26.896 113.299 28.5634 109.945C40.1755 86.5831 57.8313 66.702 79.7485 52.4008C103.562 36.862 131.379 28.5809 159.814 28.5654C188.249 28.5499 216.075 36.8007 239.906 52.3138C261.838 66.5912 279.516 86.4531 291.153 109.802C292.824 113.155 296.815 114.713 300.242 113.199Z" stroke="#FF2600" stroke-width="27.3695"/>
</g>
<mask id="mask1_2610_106" style="mask-type:luminance" maskUnits="userSpaceOnUse" x="0" y="178" width="320" height="158">
<path d="M6.49212 178.837C2.74719 178.925 -0.232163 182.035 0.0142586 185.773C2.60734 225.106 19.626 262.198 47.9393 289.851C77.8733 319.088 118.057 335.455 159.9 335.453C201.743 335.451 241.925 319.08 271.857 289.841C300.168 262.184 317.183 225.091 319.773 185.758C320.018 182.019 317.039 178.91 313.294 178.822C309.549 178.735 306.458 181.702 306.197 185.439C303.701 221.229 288.154 254.957 262.378 280.137C234.981 306.901 198.2 321.886 159.9 321.887C121.599 321.889 84.8177 306.908 57.4179 280.147C31.639 254.969 16.0893 221.243 13.5891 185.452C13.328 181.715 10.2371 178.748 6.49212 178.837Z" fill="white"/>
</mask>
<g mask="url(#mask1_2610_106)">
<path d="M6.49212 178.837C2.74719 178.925 -0.232163 182.035 0.0142586 185.773C2.60734 225.106 19.626 262.198 47.9393 289.851C77.8733 319.088 118.057 335.455 159.9 335.453C201.743 335.451 241.925 319.08 271.857 289.841C300.168 262.184 317.183 225.091 319.773 185.758C320.018 182.019 317.039 178.91 313.294 178.822C309.549 178.735 306.458 181.702 306.197 185.439C303.701 221.229 288.154 254.957 262.378 280.137C234.981 306.901 198.2 321.886 159.9 321.887C121.599 321.889 84.8177 306.908 57.4179 280.147C31.639 254.969 16.0893 221.243 13.5891 185.452C13.328 181.715 10.2371 178.748 6.49212 178.837Z" stroke="#FF2600" stroke-width="27.3695"/>
</g>
<path d="M160.197 111.171C163.034 107.052 170.508 101.806 174.954 99.287C175.579 98.9339 176.712 98.5094 177.408 98.1977C178.356 97.7727 179.392 97.2293 180.334 96.8604C184.082 95.3956 187.698 94.2304 191.725 93.7684C192.103 93.7249 192.977 93.2857 193.352 93.2427C194.058 93.1623 194.815 93.1759 195.534 93.1097C201.68 92.5323 207.865 92.4787 214.02 92.9488C215.797 93.1 216.887 92.9427 218.446 93.8615C218.679 93.9992 220.215 94.0993 220.698 94.2552C222.272 94.7642 223.705 95.5064 225.231 96.1308C225.572 96.3484 227.406 96.6565 227.593 96.8174C229.348 98.3227 231.557 98.7462 233.506 99.836C234.591 100.443 235.414 101.545 236.501 102.04C237.881 102.668 238.85 103.734 240.094 104.584C241.314 105.553 243.123 106.937 244.223 107.988C245.351 109.163 246.547 110.439 247.681 111.591C249.76 113.705 251.635 115.841 253.069 118.452C253.372 119.005 254.238 119.739 254.612 120.349C259.012 127.524 262.026 135.666 262.902 144.07C262.979 144.816 262.862 145.686 262.895 146.445C262.988 148.545 263.07 150.617 262.917 152.717C262.784 154.446 263.22 156.212 262.61 157.828C262.223 158.853 262.212 160.618 261.962 161.858C261.596 164.096 260.857 166.217 260.303 168.399C259.153 172.924 257.264 177.33 255.564 181.678C255.181 182.658 254.444 183.841 253.963 184.827C248.775 195.35 242.481 205.284 235.19 214.459C233.454 216.687 231.649 219.117 229.763 221.236C227.553 223.686 225.192 226.043 222.94 228.445C219.212 232.613 215.319 236.501 211.166 240.239C208.923 242.258 206.657 244.768 204.268 246.716C203.908 247.009 202.355 248.236 202.186 248.467C200.894 250.246 198.424 251.493 197.16 253.042L197.062 253.163C196.914 253.337 196.759 253.506 196.6 253.672C196.095 254.196 195.416 254.486 194.839 255C186.843 262.188 178.698 269.203 170.405 276.043C169.7 276.616 168.334 278.186 167.66 278.485C164.728 279.879 162.123 279.738 159.021 279.83C153.785 279.985 150.592 276.141 146.984 272.901L138.617 265.441C128.753 256.539 119.039 247.473 109.478 238.243C108.752 237.538 108.09 236.771 107.384 236.086C106.159 234.897 104.839 233.697 103.668 232.453C102.979 231.721 102.381 230.924 101.647 230.15C100.7 229.149 99.5948 228.27 98.679 227.327C97.49 226.091 96.3738 224.617 95.161 223.416C92.5001 220.781 90.2055 217.974 87.8502 215.081C85.4904 212.183 83.1482 209.299 80.9306 206.279C79.7269 204.641 78.4022 203.071 77.2481 201.391C76.7315 200.658 76.2134 199.471 75.6837 198.645C75.0907 197.621 74.2452 196.651 73.6593 195.636C72.2947 193.273 70.9139 190.952 69.4304 188.66C69.1126 188.17 68.8687 187.085 68.5176 186.472C67.8583 185.323 67.1748 184.178 66.5448 183.014C66.2407 182.443 66.0383 181.201 65.7358 180.708C64.4511 178.615 63.6198 177.219 63.2241 174.745C63.124 174.12 61.902 172.482 61.6561 171.577C61.2655 170.534 61.1502 169.382 60.9366 168.295C60.543 166.296 60.033 164.562 59.2761 162.695C58.933 161.848 58.9219 159.873 58.7539 158.92C58.5414 157.717 58.3263 156.422 58.3516 155.199C58.381 152.921 58.4098 150.647 58.4194 148.367C58.5343 146.729 58.254 144.765 58.4645 143.172C58.7291 141.169 59.0524 138.96 59.4714 136.99C59.693 135.949 60.0396 134.919 60.3163 133.902C60.7813 132.192 61.1228 130.498 61.5721 128.791C61.8929 127.637 62.7758 126.207 63.2843 125.059C65.1023 120.954 67.3276 117.198 70.076 113.655C70.7747 112.76 71.6895 112.02 72.4373 111.177C74.2148 109.338 76.0146 107.012 78.0066 105.411C80.794 103.169 83.9967 101.036 87.0973 99.2496C87.9246 98.773 89.018 98.5412 89.8053 98.096C91.9936 96.8579 94.3302 96.1854 96.6622 95.2939C98.4447 94.6802 101.615 94.1722 103.541 93.8302C104.242 93.7062 104.917 93.2286 105.411 93.185C106.15 93.0955 106.976 93.1643 107.707 93.0717C110.592 92.7059 113.432 92.7793 116.34 92.7676C119.127 92.7803 121.959 92.7115 124.725 92.9452C125.306 93.053 126.55 92.9214 127.046 93.0823C128.063 93.4127 128.705 93.7097 129.81 93.8848C131.688 94.2977 133.946 94.5932 135.74 95.2924C137.337 95.9148 138.985 96.6595 140.649 97.1898C141.598 97.4919 142.768 98.4163 143.755 98.6257C145.261 98.945 146.169 99.8907 147.426 100.685C150.597 102.667 153.538 104.843 156.34 107.324C157.912 108.717 158.944 109.318 160.197 111.171ZM160.451 265.924C161.52 265.102 162.445 264.034 163.533 263.213C165.52 261.714 167.313 260.094 169.187 258.469L176.614 252.105C181.847 247.718 186.994 243.228 192.05 238.638C192.901 237.872 193.737 236.951 194.585 236.209C196.732 234.331 198.757 232.39 200.948 230.553C201.673 229.947 202.52 228.851 203.257 228.202C204.244 227.33 205.234 226.544 206.181 225.622C211.25 220.67 216.053 215.451 220.572 209.987C221.169 209.269 221.89 208.572 222.473 207.847C223.391 206.706 224.414 205.441 225.249 204.212C225.947 203.185 227.577 201.634 227.924 200.576C228.099 199.748 229.136 199.184 229.555 198.505C231.168 195.887 233.176 193.595 234.588 190.849C234.93 190.181 235.552 189.524 235.921 188.84C236.38 188.07 236.762 187.208 237.218 186.442C239.16 183.182 241.062 179.959 242.441 176.409C242.734 175.655 243.289 174.883 243.602 174.099C244.932 170.77 246.1 167.365 247.208 163.955C248.029 161.435 248.829 158.542 249.166 155.916C249.377 154.221 249.292 152.306 249.382 150.628C249.667 145.282 248.686 140.603 246.701 135.639C246.41 134.914 245.922 134.122 245.58 133.381C244.967 132.047 244.392 130.628 243.64 129.36C242.249 127.241 240.644 125.216 239.083 123.223C236.326 119.846 233.212 116.939 229.565 114.563C228.601 113.934 227.778 113.173 226.701 112.582C225.617 111.987 224.56 111.49 223.45 110.953C222.49 110.488 221.251 109.627 220.297 109.271C218.631 108.651 216.763 108.256 215.03 107.879C213.889 107.632 212.611 106.977 211.534 106.86C209.534 106.472 202.214 106.272 200.2 106.645C199.689 106.684 199.139 106.694 198.639 106.807C197.891 106.977 197.196 107.297 196.434 107.43C194.053 107.845 191.535 108.179 189.219 108.876C187.718 109.327 186.291 110.019 184.859 110.652C183.503 111.252 182.07 111.777 180.761 112.473C177.108 114.417 172.444 118.287 169.766 121.451C167.705 123.884 165.742 126.629 164.109 129.365C163.324 130.681 162.793 132.165 161.897 133.417C161.63 133.792 161.466 133.973 161.002 134.012C160.441 134.058 159.978 133.787 159.571 133.418C157.993 131.99 156.466 128.605 155.153 126.748C154.332 125.587 153.341 124.552 152.409 123.483C151.704 122.673 151.045 121.823 150.33 121.024C147.782 118.18 142.233 114.12 138.911 112.316C137.617 111.615 136.256 111.077 134.922 110.462C133.558 109.833 132.435 109.17 130.957 108.799C129.277 108.376 127.545 108.065 125.843 107.733C124.952 107.56 124.024 107.579 123.198 107.173C121.561 106.366 112.631 106.332 110.903 106.867C110.505 106.99 110.134 107.225 109.73 107.324C108.942 107.518 108.064 107.516 107.257 107.642C106.202 107.808 105.161 108.122 104.112 108.331C103.066 108.54 101.945 108.645 100.927 108.957C99.4956 109.394 98.1239 110.132 96.7578 110.739C95.6467 111.232 94.4971 111.67 93.4164 112.227C89.1597 114.419 84.9044 117.865 81.8195 121.546C81.0242 122.495 80.3583 123.545 79.6505 124.56C78.5601 126.121 77.411 127.81 76.5929 129.531C76.0302 130.715 75.7019 132.016 75.1554 133.208C74.8523 133.87 74.3621 134.432 74.1298 135.129C73.4741 137.096 73.2342 139.24 72.8634 141.276C72.5907 142.772 72.1449 144.405 72.1181 145.926C71.9238 147.118 71.8261 152.424 72.0877 153.589C72.1803 154.932 72.6989 157.002 72.9332 158.42C73.2909 159.737 73.2363 161.544 73.7083 162.792C74.7051 165.425 75.6477 168.473 76.648 171.078C77.6296 173.634 79.0099 176.177 80.2531 178.594C80.8719 179.798 81.3404 181.043 82.0467 182.202C84.0271 185.45 85.9498 188.525 88.0951 191.65C89.396 193.641 90.76 195.802 92.1813 197.701C94.0367 200.182 96.094 202.591 97.9099 205.11C98.5899 206.053 99.9525 207.124 100.556 208.011C101.569 209.502 102.398 210.563 103.734 211.795C105.613 213.797 107.41 215.966 109.362 217.902C112.002 220.518 114.587 223.196 117.139 225.9C117.863 226.671 118.338 226.688 119.091 227.473C121.037 229.498 123.004 231.514 124.99 233.498C125.707 234.215 126.968 234.931 127.802 235.802C128.561 236.595 129.263 237.46 130.011 238.208C131.609 239.878 133.465 241.317 135.114 242.913C136.472 244.228 137.575 245.413 139.105 246.585C140.029 247.292 140.949 248.641 141.934 249.39C142.727 250.103 143.757 250.696 144.492 251.462C145.862 252.892 147.062 254.18 148.722 255.286C149.049 255.503 149.618 256.501 150.03 256.805C150.466 257.198 151.354 257.486 151.732 257.906C154.415 260.882 157.427 263.323 160.451 265.924Z" fill="#FF2600"/>
<path d="M385.094 304.284C380.395 304.284 377.323 302.236 377.323 297.176V277.9H373.046V274.105H377.323V266.997H381.901V274.105H389.551V277.9H381.901V296.453C381.901 299.344 382.865 300.489 386.299 300.489C387.564 300.489 388.949 300.308 390.154 299.947V303.079C388.949 303.621 387.684 304.284 385.094 304.284ZM419.225 304.464C409.828 304.464 405.069 298.742 405.069 289.405V288.562C405.069 278.141 411.213 273.502 418.08 273.502C426.273 273.502 430.128 278.261 430.128 287.538V290.128H409.768C410.009 297.597 413.563 300.489 419.948 300.489C423.923 300.489 426.574 299.525 429.285 298.26V301.693C427.477 302.958 424.044 304.464 419.225 304.464ZM417.96 277.237C414.225 277.237 410.25 279.406 409.768 286.453H425.309C425.309 279.948 422.839 277.237 417.96 277.237ZM447.416 303.922V260.792H452.054V303.922H447.416ZM483.472 304.464C474.075 304.464 469.316 298.742 469.316 289.405V288.562C469.316 278.141 475.46 273.502 482.327 273.502C490.52 273.502 494.375 278.261 494.375 287.538V290.128H474.014C474.255 297.597 477.809 300.489 484.195 300.489C488.17 300.489 490.821 299.525 493.531 298.26V301.693C491.724 302.958 488.291 304.464 483.472 304.464ZM482.207 277.237C478.472 277.237 474.496 279.406 474.014 286.453H489.556C489.556 279.948 487.086 277.237 482.207 277.237ZM511.542 303.922V274.044H515.94V276.635H516.181C518.952 274.888 522.144 273.502 525.517 273.502C528.891 273.502 531.3 274.587 532.686 276.815H532.927C536.179 274.707 539.673 273.502 543.046 273.502C548.227 273.502 551.239 275.852 551.239 281.634V303.922H546.721V282.598C546.721 278.984 545.275 277.478 541.239 277.478C538.89 277.478 536.36 278.382 533.529 279.647C533.649 280.369 533.71 280.912 533.71 281.634V303.922H529.132V282.598C529.132 278.984 527.686 277.478 523.71 277.478C521.18 277.478 518.53 278.502 516.12 279.647V303.922H511.542ZM582.426 304.464C573.029 304.464 568.27 298.742 568.27 289.405V288.562C568.27 278.141 574.414 273.502 581.281 273.502C589.473 273.502 593.329 278.261 593.329 287.538V290.128H572.968C573.209 297.597 576.763 300.489 583.149 300.489C587.124 300.489 589.775 299.525 592.485 298.26V301.693C590.678 302.958 587.245 304.464 582.426 304.464ZM581.161 277.237C577.426 277.237 573.45 279.406 572.968 286.453H588.51C588.51 279.948 586.04 277.237 581.161 277.237ZM621.158 304.464C615.195 304.464 608.749 300.85 608.749 289.827V289.044C608.749 278.201 614.351 273.502 622.062 273.502C625.736 273.502 628.266 274.526 629.893 275.49V260.792H634.531V303.922H630.676L630.134 301.452H629.893C628.086 303.199 625.194 304.464 621.158 304.464ZM622.544 300.669C626.038 300.669 628.387 299.344 629.893 298.139V279.345C628.507 278.261 625.736 277.418 622.664 277.418C617.002 277.418 613.568 280.369 613.568 288.441V289.646C613.568 298.019 617.183 300.669 622.544 300.669ZM655.85 312.898C654.465 312.898 652.959 312.476 652.116 312.054V308.621C652.838 308.741 653.923 309.042 655.007 309.042C657.898 309.042 659.705 308.56 660.97 305.308L661.874 302.838L650.429 274.044H655.368L664.163 296.754H664.284L672.355 274.044H676.994L665.247 305.79C663.259 311.09 660.79 312.898 655.85 312.898ZM704.788 304.464C696.235 304.464 690.994 299.404 690.994 289.586V288.682C690.994 278.08 697.259 273.502 704.969 273.502C708.885 273.502 711.234 274.225 713.222 275.49V279.345C710.571 278.141 708.644 277.418 704.728 277.418C699.307 277.418 695.753 281.092 695.753 287.959V289.405C695.753 297.055 698.945 300.489 705.331 300.489C709.366 300.489 712.017 299.224 713.523 298.38V302.115C711.595 303.26 708.945 304.464 704.788 304.464ZM732.509 312.898C731.124 312.898 729.618 312.476 728.775 312.054V308.621C729.497 308.741 730.582 309.042 731.666 309.042C734.557 309.042 736.365 308.56 737.63 305.308L738.533 302.838L727.088 274.044H732.027L740.822 296.754H740.943L749.014 274.044H753.653L741.906 305.79C739.919 311.09 737.449 312.898 732.509 312.898ZM769.52 303.922V274.044H773.918V276.635H774.159C776.93 274.828 780.785 273.502 784.459 273.502C790.302 273.502 793.133 275.852 793.133 281.634V303.922H788.555V282.598C788.555 278.984 787.29 277.478 782.532 277.478C779.701 277.478 776.568 278.502 774.099 279.647V303.922H769.52ZM819.345 304.464C813.923 304.464 810.008 301.693 810.008 296.091C810.008 290.851 813.381 288.08 819.104 287.417L827.176 286.453V283.321C827.176 278.683 825.128 277.478 819.766 277.478C816.875 277.478 814.526 277.9 812.658 278.442V275.129C815.249 274.044 818.14 273.502 821.574 273.502C828.139 273.502 831.814 276.213 831.814 282.297V303.922H828.079L827.597 301.332H827.296C825.911 303.019 823.381 304.464 819.345 304.464ZM820.489 300.85C823.26 300.85 825.911 299.947 827.176 298.682V289.887L820.309 290.67C816.634 291.031 814.827 292.537 814.827 295.971C814.827 299.224 817.056 300.85 820.489 300.85ZM876.774 303.922V260.792H881.352V303.922H876.774ZM894.483 303.922L881.833 288.501L893.881 274.105H898.82L887.074 288.14L899.784 303.922H894.483ZM922.48 304.464C917.059 304.464 913.143 301.693 913.143 296.091C913.143 290.851 916.516 288.08 922.239 287.417L930.311 286.453V283.321C930.311 278.683 928.263 277.478 922.902 277.478C920.01 277.478 917.661 277.9 915.794 278.442V275.129C918.384 274.044 921.275 273.502 924.709 273.502C931.275 273.502 934.949 276.213 934.949 282.297V303.922H931.214L930.733 301.332H930.431C929.046 303.019 926.516 304.464 922.48 304.464ZM923.624 300.85C926.395 300.85 929.046 299.947 930.311 298.682V289.887L923.444 290.67C919.769 291.031 917.962 292.537 917.962 295.971C917.962 299.224 920.191 300.85 923.624 300.85ZM953.844 303.922V274.044H958.242V277.418H958.543C960.23 275.49 963.482 273.743 966.856 273.743C967.518 273.743 968.362 273.804 968.663 273.864V278.02C967.88 277.9 966.976 277.839 966.494 277.839C963.482 277.839 960.591 278.924 958.483 280.43V303.922H953.844ZM995.571 304.464C989.607 304.464 983.162 300.85 983.162 289.827V289.044C983.162 278.201 988.764 273.502 996.474 273.502C1000.15 273.502 1002.68 274.526 1004.31 275.49V260.792H1008.94V303.922H1005.09L1004.55 301.452H1004.31C1002.5 303.199 999.607 304.464 995.571 304.464ZM996.956 300.669C1000.45 300.669 1002.8 299.344 1004.31 298.139V279.345C1002.92 278.261 1000.15 277.418 997.077 277.418C991.415 277.418 987.981 280.369 987.981 288.441V289.646C987.981 298.019 991.595 300.669 996.956 300.669ZM1028.15 303.922V274.105H1032.73V303.922H1028.15ZM1028.09 268.081V263.262H1032.79V268.081H1028.09ZM1063.49 304.464C1055.05 304.464 1049.99 299.043 1049.99 289.525V288.622C1049.99 279.165 1055.48 273.502 1063.55 273.502C1071.98 273.502 1077.1 278.984 1077.1 288.441V289.285C1077.1 298.802 1071.56 304.464 1063.49 304.464ZM1063.61 300.669C1069.03 300.669 1072.4 296.874 1072.4 289.827V288.321C1072.4 280.008 1068.37 277.297 1063.49 277.297C1058.07 277.297 1054.69 281.152 1054.69 288.14V289.646C1054.69 297.959 1058.61 300.669 1063.61 300.669ZM1094.4 303.922V260.792H1099.04V303.922H1094.4ZM1129.79 304.464C1121.36 304.464 1116.3 299.043 1116.3 289.525V288.622C1116.3 279.165 1121.78 273.502 1129.85 273.502C1138.29 273.502 1143.41 278.984 1143.41 288.441V289.285C1143.41 298.802 1137.87 304.464 1129.79 304.464ZM1129.91 300.669C1135.34 300.669 1138.71 296.874 1138.71 289.827V288.321C1138.71 280.008 1134.67 277.297 1129.79 277.297C1124.37 277.297 1121 281.152 1121 288.14V289.646C1121 297.959 1124.91 300.669 1129.91 300.669ZM1171.01 312.777C1161.91 312.777 1157.63 310.127 1157.63 305.79C1157.63 302.597 1160.22 300.73 1163.3 299.706V299.404C1161.61 298.922 1160.28 297.657 1160.28 295.67C1160.28 293.802 1161.37 292.417 1163.66 290.73C1161.37 289.224 1159.92 286.815 1159.92 283.261V283.14C1159.92 276.936 1164.62 273.502 1171.19 273.502C1172.69 273.502 1174.08 273.683 1175.4 273.984H1185.52V277.538H1180.16C1181.55 278.863 1182.33 280.671 1182.33 283.02V283.08C1182.33 289.465 1177.39 292.658 1171.13 292.658C1169.26 292.658 1167.57 292.357 1166.01 291.814C1165.22 292.537 1164.62 293.26 1164.62 294.224C1164.62 295.85 1165.59 296.453 1167.57 296.453H1175.83C1181.25 296.453 1185.28 298.079 1185.28 303.621C1185.28 308.741 1181.19 312.777 1171.01 312.777ZM1170.89 309.163C1177.93 309.163 1180.46 307.356 1180.46 304.223C1180.46 301.452 1179.02 300.549 1175.1 300.549H1166.49C1164.2 301.332 1162.45 302.657 1162.45 305.187C1162.45 307.838 1164.98 309.163 1170.89 309.163ZM1171.13 289.044C1175.28 289.044 1177.69 287.116 1177.69 283.261V282.96C1177.69 278.863 1175.16 276.996 1171.13 276.996C1167.03 276.996 1164.5 279.165 1164.5 282.899V283.201C1164.5 287.116 1167.15 289.044 1171.13 289.044ZM1201.48 303.922V274.105H1206.06V303.922H1201.48ZM1201.42 268.081V263.262H1206.12V268.081H1201.42ZM1237.11 304.464C1228.56 304.464 1223.32 299.404 1223.32 289.586V288.682C1223.32 278.08 1229.58 273.502 1237.29 273.502C1241.21 273.502 1243.56 274.225 1245.55 275.49V279.345C1242.9 278.141 1240.97 277.418 1237.05 277.418C1231.63 277.418 1228.08 281.092 1228.08 287.959V289.405C1228.08 297.055 1231.27 300.489 1237.65 300.489C1241.69 300.489 1244.34 299.224 1245.85 298.38V302.115C1243.92 303.26 1241.27 304.464 1237.11 304.464ZM1260.62 303.922V300.428L1277.12 277.96V277.779H1261.52V274.044H1282.72V277.358L1266.22 300.007V300.127H1282.66V303.922H1260.62ZM1299.96 303.922V274.044H1304.36V276.635H1304.6C1307.37 274.828 1311.23 273.502 1314.9 273.502C1320.74 273.502 1323.57 275.852 1323.57 281.634V303.922H1319V282.598C1319 278.984 1317.73 277.478 1312.97 277.478C1310.14 277.478 1307.01 278.502 1304.54 279.647V303.922H1299.96ZM1349.79 304.464C1344.36 304.464 1340.45 301.693 1340.45 296.091C1340.45 290.851 1343.82 288.08 1349.55 287.417L1357.62 286.453V283.321C1357.62 278.683 1355.57 277.478 1350.21 277.478C1347.32 277.478 1344.97 277.9 1343.1 278.442V275.129C1345.69 274.044 1348.58 273.502 1352.01 273.502C1358.58 273.502 1362.26 276.213 1362.26 282.297V303.922H1358.52L1358.04 301.332H1357.74C1356.35 303.019 1353.82 304.464 1349.79 304.464ZM1350.93 300.85C1353.7 300.85 1356.35 299.947 1357.62 298.682V289.887L1350.75 290.67C1347.08 291.031 1345.27 292.537 1345.27 295.971C1345.27 299.224 1347.5 300.85 1350.93 300.85Z" fill="#303030"/>
</svg>
