<svg width="1215" height="339" viewBox="0 0 1215 339" fill="none" xmlns="http://www.w3.org/2000/svg">
<path d="M434.593 238.503C391.917 238.503 370.302 213.563 370.302 169.778V166.73C370.302 119.343 397.459 97.7282 429.327 97.7282C466.184 97.7282 483.088 120.452 483.088 161.188V169.502H384.989C384.989 208.852 402.17 225.756 436.532 225.756C454.822 225.756 467.847 221.599 478.654 216.057V227.419C470.341 232.407 455.377 238.503 434.593 238.503ZM428.773 109.644C407.435 109.644 387.483 123.223 385.266 157.863H468.124C468.124 125.717 455.377 109.644 428.773 109.644ZM514.489 236.287V37.8711H529.45V236.287H514.489ZM569.685 236.287V37.8711H584.095V236.287H569.685ZM650.605 236.287L587.976 165.622L647.28 100.222H663.35L604.05 164.79L667.231 236.287H650.605ZM724.977 238.503C700.316 238.503 683.133 224.925 683.133 201.37C683.133 177.815 697.265 165.345 723.869 162.297L764.053 157.863V140.127C764.053 117.127 753.519 110.476 729.136 110.476C715.556 110.476 704.47 112.693 694.771 115.464V104.933C706.413 100.222 719.159 97.7282 734.398 97.7282C762.667 97.7282 778.463 109.367 778.463 136.802V236.287H766.269L765.161 224.093H764.327C757.4 231.298 744.933 238.503 724.977 238.503ZM728.58 227.142C743.825 227.142 756.848 221.322 764.053 214.948V168.67L727.75 172.827C707.243 175.044 697.822 183.357 697.822 200.816C697.822 217.72 709.737 227.142 728.58 227.142ZM817.57 236.287V99.9453H831.702V116.018H832.536C840.849 107.15 856.089 98.2827 872.994 98.2827C875.766 98.2827 879.091 98.5595 881.029 99.114V112.415C877.983 111.861 874.102 111.584 871.886 111.584C856.368 111.584 841.958 118.512 832.258 126.825V236.287H817.57ZM954.814 238.503C926.272 238.503 898.839 221.045 898.839 170.887V167.562C898.839 118.789 924.335 97.7282 959.252 97.7282C977.264 97.7282 989.458 102.717 997.771 108.259V37.8711H1012.18V236.287H999.987L998.601 224.093H997.771C988.345 232.407 974.77 238.503 954.814 238.503ZM958.973 226.588C976.707 226.588 989.18 219.937 997.771 212.732V120.729C990.009 114.632 976.707 110.476 961.468 110.476C932.648 110.476 913.805 125.44 913.805 165.899V170.333C913.805 211.623 932.369 226.588 958.973 226.588ZM1053.03 236.287V100.222H1067.72V236.287H1053.03ZM1052.75 71.1253V54.2208H1067.99V71.1253H1052.75ZM1140.65 238.503C1115.99 238.503 1098.81 224.925 1098.81 201.37C1098.81 177.815 1112.94 165.345 1139.54 162.297L1179.73 157.863V140.127C1179.73 117.127 1169.19 110.476 1144.81 110.476C1131.23 110.476 1120.14 112.693 1110.45 115.464V104.933C1122.09 100.222 1134.83 97.7282 1150.07 97.7282C1178.34 97.7282 1194.14 109.367 1194.14 136.802V236.287H1181.94L1180.84 224.093H1180C1173.07 231.298 1160.61 238.503 1140.65 238.503ZM1144.25 227.142C1159.5 227.142 1172.52 221.322 1179.73 214.948V168.67L1143.42 172.827C1122.92 175.044 1113.5 183.357 1113.5 200.816C1113.5 217.72 1125.41 227.142 1144.25 227.142Z" fill="#0C71C3"/>
<path d="M373.528 302.422V252.817H378.863V302.422H373.528ZM399.409 303.046C392.689 303.046 388.878 299.651 388.878 293V268.059H394.213V292.238C394.213 296.672 395.807 298.473 400.864 298.473C404.536 298.473 407.584 297.157 410.425 295.771V268.059H415.69V302.422H411.117L410.633 299.304H410.355C407.238 301.452 403.566 303.046 399.409 303.046ZM438.364 303.184C434.345 303.184 428.872 302.491 425.824 301.314V252.817H431.158V270.345H431.505C434.137 268.751 437.394 267.435 442.105 267.435C448.687 267.435 455.476 271.384 455.476 284.271V285.171C455.476 296.672 449.449 303.184 438.364 303.184ZM438.641 298.75C444.807 298.75 449.934 295.841 449.934 286.002V284.617C449.934 275.056 446.608 271.939 439.68 271.939C436.147 271.939 432.96 273.324 431.158 274.156V297.503C432.752 298.196 435.177 298.75 438.641 298.75ZM477.71 303.046C466.902 303.046 461.429 296.464 461.429 285.725V284.755C461.429 272.77 468.495 267.435 476.394 267.435C485.816 267.435 490.25 272.908 490.25 283.578V286.557H466.833C467.11 295.147 471.197 298.473 478.541 298.473C483.114 298.473 486.162 297.365 489.28 295.909V299.858C487.201 301.314 483.252 303.046 477.71 303.046ZM476.255 271.731C471.959 271.731 467.387 274.225 466.833 282.331H484.707C484.707 274.848 481.867 271.731 476.255 271.731ZM498.355 302.422V252.817H503.69V302.422H498.355ZM522.644 302.976C518.141 302.976 514.396 302.145 511.558 300.552V296.325C514.538 297.434 517.033 298.473 521.88 298.473C527.354 298.473 529.571 296.533 529.571 293.415C529.571 290.229 527.977 288.843 523.61 287.596L520.22 286.695C515.231 285.31 511.836 283.023 511.836 277.204C511.836 271.384 515.646 267.435 523.544 267.435C528.113 267.435 531.093 268.475 532.895 269.445V273.74C531.093 272.839 527.633 271.939 523.823 271.939C519.178 271.939 516.891 273.532 516.891 276.719C516.891 279.698 518.348 280.945 522.021 281.984L525.482 282.954C532.065 284.686 534.767 286.903 534.767 292.861C534.767 299.374 530.193 302.976 522.644 302.976ZM542.665 302.422V252.817H547.932V302.422H542.665ZM563.035 302.422L548.489 284.686L562.342 268.128H568.024L554.515 284.271L569.132 302.422H563.035ZM575.958 302.422V268.128H581.225V302.422H575.958ZM575.892 261.2V255.657H581.296V261.2H575.892ZM605.582 303.046C594.775 303.046 589.3 296.464 589.3 285.725V284.755C589.3 272.77 596.369 267.435 604.267 267.435C613.688 267.435 618.12 272.908 618.12 283.578V286.557H594.704C594.982 295.147 599.071 298.473 606.412 298.473C610.986 298.473 614.032 297.365 617.149 295.909V299.858C615.074 301.314 611.123 303.046 605.582 303.046ZM604.125 271.731C599.83 271.731 595.261 274.225 594.704 282.331H612.58C612.58 274.848 609.736 271.731 604.125 271.731ZM658.006 303.046C648.17 303.046 642.139 297.226 642.139 285.933V284.894C642.139 272.701 649.344 267.435 658.213 267.435C662.717 267.435 665.418 268.267 667.705 269.721V274.156C664.654 272.77 662.438 271.939 657.935 271.939C651.702 271.939 647.613 276.164 647.613 284.063V285.725C647.613 294.524 651.287 298.473 658.628 298.473C663.273 298.473 666.319 297.018 668.05 296.048V300.344C665.833 301.66 662.787 303.046 658.006 303.046ZM689.609 303.046C678.801 303.046 673.332 296.464 673.332 285.725V284.755C673.332 272.77 680.395 267.435 688.293 267.435C697.714 267.435 702.152 272.908 702.152 283.578V286.557H678.736C679.009 295.147 683.097 298.473 690.444 298.473C695.013 298.473 698.064 297.365 701.18 295.909V299.858C699.101 301.314 695.154 303.046 689.609 303.046ZM688.157 271.731C683.861 271.731 679.287 274.225 678.736 282.331H696.606C696.606 274.848 693.768 271.731 688.157 271.731ZM710.116 302.422V268.059H715.176V271.038H715.454C718.641 268.959 723.074 267.435 727.299 267.435C734.018 267.435 737.276 270.137 737.276 276.788V302.422H732.009V277.897C732.009 273.74 730.557 272.008 725.082 272.008C721.829 272.008 718.221 273.186 715.383 274.502V302.422H710.116ZM758.137 302.838C752.734 302.838 749.202 300.482 749.202 294.663V272.493H744.284V268.128H749.202V259.953H754.469V268.128H763.268V272.493H754.469V293.831C754.469 297.157 755.577 298.473 759.524 298.473C760.981 298.473 762.575 298.265 763.956 297.849V301.452C762.575 302.076 761.118 302.838 758.137 302.838ZM771.485 302.422V268.059H776.54V271.939H776.889C778.827 269.721 782.566 267.712 786.447 267.712C787.211 267.712 788.182 267.781 788.526 267.851V272.631C787.625 272.493 786.588 272.423 786.032 272.423C782.566 272.423 779.241 273.67 776.818 275.402V302.422H771.485ZM805.754 303.046C799.035 303.046 795.225 299.651 795.225 293V268.059H800.558V292.238C800.558 296.672 802.152 298.473 807.212 298.473C810.885 298.473 813.931 297.157 816.774 295.771V268.059H822.036V302.422H817.462L816.982 299.304H816.703C813.587 301.452 809.913 303.046 805.754 303.046ZM832.171 302.422V268.059H837.231V271.038H837.504C840.692 269.029 844.365 267.435 848.246 267.435C852.127 267.435 854.894 268.682 856.488 271.246H856.766C860.505 268.821 864.523 267.435 868.404 267.435C874.364 267.435 877.825 270.137 877.825 276.788V302.422H872.633V277.897C872.633 273.74 870.969 272.008 866.324 272.008C863.622 272.008 860.713 273.047 857.459 274.502C857.596 275.333 857.667 275.957 857.667 276.788V302.422H852.4V277.897C852.4 273.74 850.74 272.008 846.166 272.008C843.257 272.008 840.206 273.186 837.438 274.502V302.422H832.171ZM905.987 302.422V252.817H911.249V302.422H905.987ZM926.352 302.422L911.806 284.686L925.659 268.128H931.341L917.832 284.271L932.449 302.422H926.352ZM946.773 303.046C940.54 303.046 936.037 299.858 936.037 293.415C936.037 287.388 939.917 284.201 946.5 283.439L955.779 282.331V278.728C955.779 273.393 953.427 272.008 947.259 272.008C943.935 272.008 941.233 272.493 939.088 273.116V269.306C942.063 268.059 945.392 267.435 949.339 267.435C956.893 267.435 961.118 270.553 961.118 277.55V302.422H956.822L956.265 299.443H955.921C954.327 301.383 951.418 303.046 946.773 303.046ZM948.094 298.889C951.276 298.889 954.327 297.849 955.779 296.395V286.28L947.881 287.18C943.656 287.596 941.577 289.328 941.577 293.277C941.577 297.018 944.142 298.889 948.094 298.889ZM971.07 302.422V268.059H976.13V271.939H976.474C978.417 269.721 982.156 267.712 986.037 267.712C986.796 267.712 987.767 267.781 988.116 267.851V272.631C987.215 272.493 986.173 272.423 985.622 272.423C982.156 272.423 978.832 273.67 976.403 275.402V302.422H971.07ZM1007.28 303.046C1000.43 303.046 993.014 298.889 993.014 286.21V285.31C993.014 272.839 999.455 267.435 1008.32 267.435C1012.55 267.435 1015.46 268.613 1017.33 269.721V252.817H1022.66V302.422H1018.23L1017.61 299.582H1017.33C1015.25 301.59 1011.93 303.046 1007.28 303.046ZM1008.88 298.681C1012.89 298.681 1015.6 297.157 1017.33 295.771V274.156C1015.74 272.908 1012.55 271.939 1009.02 271.939C1002.51 271.939 998.554 275.333 998.554 284.617V286.002C998.554 295.633 1002.71 298.681 1008.88 298.681ZM1032.98 302.422V268.128H1038.25V302.422H1032.98ZM1032.91 261.2V255.657H1038.32V261.2H1032.91ZM1061.84 303.046C1052.14 303.046 1046.32 296.81 1046.32 285.864V284.825C1046.32 273.948 1052.63 267.435 1061.91 267.435C1071.61 267.435 1077.5 273.74 1077.5 284.617V285.587C1077.5 296.533 1071.13 303.046 1061.84 303.046ZM1061.98 298.681C1068.22 298.681 1072.1 294.316 1072.1 286.21V284.478C1072.1 274.918 1067.45 271.8 1061.84 271.8C1055.61 271.8 1051.73 276.234 1051.73 284.271V286.002C1051.73 295.563 1056.23 298.681 1061.98 298.681ZM1085.62 302.422V252.817H1090.95V302.422H1085.62ZM1114.55 303.046C1104.85 303.046 1099.02 296.81 1099.02 285.864V284.825C1099.02 273.948 1105.33 267.435 1114.61 267.435C1124.31 267.435 1130.2 273.74 1130.2 284.617V285.587C1130.2 296.533 1123.83 303.046 1114.55 303.046ZM1114.68 298.681C1120.92 298.681 1124.8 294.316 1124.8 286.21V284.478C1124.8 274.918 1120.16 271.8 1114.55 271.8C1108.31 271.8 1104.43 276.234 1104.43 284.271V286.002C1104.43 295.563 1108.94 298.681 1114.68 298.681ZM1150.17 312.606C1139.71 312.606 1134.79 309.558 1134.79 304.57C1134.79 300.898 1137.77 298.75 1141.3 297.572V297.226C1139.36 296.672 1137.84 295.217 1137.84 292.931C1137.84 290.783 1139.08 289.19 1141.72 287.25C1139.08 285.518 1137.42 282.746 1137.42 278.659V278.52C1137.42 271.384 1142.83 267.435 1150.38 267.435C1152.11 267.435 1153.7 267.643 1155.23 267.989H1166.87V272.077H1160.7C1162.29 273.601 1163.19 275.68 1163.19 278.382V278.451C1163.19 285.795 1157.51 289.466 1150.3 289.466C1148.16 289.466 1146.22 289.12 1144.42 288.496C1143.52 289.328 1142.83 290.16 1142.83 291.268C1142.83 293.138 1143.93 293.831 1146.22 293.831H1155.71C1161.95 293.831 1166.59 295.702 1166.59 302.076C1166.59 307.965 1161.88 312.606 1150.17 312.606ZM1150.03 308.449C1158.14 308.449 1161.05 306.371 1161.05 302.768C1161.05 299.582 1159.38 298.542 1154.88 298.542H1144.97C1142.34 299.443 1140.33 300.967 1140.33 303.877C1140.33 306.925 1143.24 308.449 1150.03 308.449ZM1150.3 285.31C1155.09 285.31 1157.86 283.093 1157.86 278.659V278.312C1157.86 273.601 1154.95 271.453 1150.3 271.453C1145.59 271.453 1142.68 273.948 1142.68 278.243V278.589C1142.68 283.093 1145.74 285.31 1150.3 285.31ZM1173.44 302.422V268.128H1178.7V302.422H1173.44ZM1173.37 261.2V255.657H1178.77V261.2H1173.37ZM1189.13 302.422V268.128H1194.4V302.422H1189.13ZM1189.06 261.2V255.657H1194.47V261.2H1189.06Z" fill="#303030"/>
<mask id="mask0_2610_94" style="mask-type:luminance" maskUnits="userSpaceOnUse" x="15" y="15" width="290" height="100">
<path d="M300.573 114.166C303.999 112.652 305.562 108.639 303.904 105.28C291.194 79.5277 271.774 57.6248 247.638 41.9121C221.602 24.9644 191.203 15.9504 160.138 15.9673C129.073 15.9842 98.6825 25.0314 72.666 42.0075C48.5464 57.7462 29.1504 79.6704 16.4688 105.436C14.8146 108.797 16.382 112.808 19.8099 114.319C23.2378 115.83 27.227 114.267 28.8944 110.912C40.5066 87.5504 58.1624 67.6693 80.0795 53.3681C103.893 37.8293 131.71 29.5482 160.145 29.5327C188.58 29.5172 216.406 37.768 240.237 53.281C262.169 67.5585 279.847 87.4204 291.484 110.769C293.155 114.122 297.146 115.68 300.573 114.166Z" fill="white"/>
</mask>
<g mask="url(#mask0_2610_94)">
<path d="M300.573 114.166C303.999 112.652 305.562 108.639 303.904 105.28C291.194 79.5277 271.774 57.6248 247.638 41.9121C221.602 24.9644 191.203 15.9504 160.138 15.9673C129.073 15.9842 98.6825 25.0314 72.666 42.0075C48.5464 57.7462 29.1504 79.6704 16.4688 105.436C14.8146 108.797 16.382 112.808 19.8099 114.319C23.2378 115.83 27.227 114.267 28.8944 110.912C40.5066 87.5504 58.1624 67.6693 80.0795 53.3681C103.893 37.8293 131.71 29.5482 160.145 29.5327C188.58 29.5172 216.406 37.768 240.237 53.281C262.169 67.5585 279.847 87.4204 291.484 110.769C293.155 114.122 297.146 115.68 300.573 114.166Z" stroke="#FF2600" stroke-width="27.3695"/>
</g>
<mask id="mask1_2610_94" style="mask-type:luminance" maskUnits="userSpaceOnUse" x="0" y="179" width="321" height="158">
<path d="M6.82317 179.804C3.07824 179.892 0.0988916 183.002 0.345313 186.74C2.93839 226.073 19.9571 263.165 48.2703 290.819C78.2043 320.056 118.388 336.422 160.231 336.42C202.074 336.418 242.257 320.047 272.188 290.808C300.499 263.152 317.514 226.058 320.104 186.725C320.349 182.987 317.37 179.877 313.625 179.789C309.88 179.702 306.789 182.669 306.528 186.406C304.032 222.196 288.485 255.924 262.709 281.104C235.312 307.868 198.531 322.853 160.231 322.855C121.93 322.857 85.1488 307.875 57.749 281.114C31.97 255.936 16.4203 222.21 13.9201 186.42C13.6591 182.683 10.5681 179.716 6.82317 179.804Z" fill="white"/>
</mask>
<g mask="url(#mask1_2610_94)">
<path d="M6.82317 179.804C3.07824 179.892 0.0988916 183.002 0.345313 186.74C2.93839 226.073 19.9571 263.165 48.2703 290.819C78.2043 320.056 118.388 336.422 160.231 336.42C202.074 336.418 242.257 320.047 272.188 290.808C300.499 263.152 317.514 226.058 320.104 186.725C320.349 182.987 317.37 179.877 313.625 179.789C309.88 179.702 306.789 182.669 306.528 186.406C304.032 222.196 288.485 255.924 262.709 281.104C235.312 307.868 198.531 322.853 160.231 322.855C121.93 322.857 85.1488 307.875 57.749 281.114C31.97 255.936 16.4203 222.21 13.9201 186.42C13.6591 182.683 10.5681 179.716 6.82317 179.804Z" stroke="#FF2600" stroke-width="27.3695"/>
</g>
<path d="M160.528 112.138C163.365 108.019 170.839 102.773 175.286 100.254C175.91 99.9012 177.043 99.4766 177.739 99.165C178.687 98.74 179.723 98.1965 180.666 97.8277C184.413 96.3629 188.029 95.1977 192.056 94.7357C192.434 94.6922 193.308 94.253 193.683 94.21C194.389 94.1296 195.146 94.1432 195.865 94.0769C202.011 93.4996 208.196 93.446 214.351 93.916C216.128 94.0673 217.218 93.91 218.777 94.8288C219.01 94.9664 220.546 95.0666 221.029 95.2225C222.603 95.7315 224.036 96.4737 225.562 97.0981C225.903 97.3157 227.737 97.6238 227.924 97.7847C229.679 99.29 231.888 99.7134 233.837 100.803C234.922 101.41 235.745 102.512 236.832 103.007C238.213 103.635 239.181 104.701 240.425 105.551C241.645 106.521 243.454 107.904 244.554 108.955C245.682 110.13 246.878 111.406 248.012 112.558C250.091 114.672 251.966 116.808 253.4 119.419C253.703 119.972 254.569 120.707 254.943 121.316C259.343 128.492 262.357 136.633 263.233 145.038C263.31 145.784 263.193 146.653 263.226 147.413C263.319 149.513 263.401 151.584 263.248 153.684C263.115 155.414 263.552 157.179 262.941 158.795C262.554 159.82 262.543 161.585 262.293 162.826C261.927 165.063 261.188 167.185 260.634 169.366C259.484 173.892 257.595 178.298 255.895 182.645C255.512 183.625 254.775 184.809 254.294 185.794C249.106 196.317 242.812 206.252 235.521 215.426C233.785 217.654 231.981 220.084 230.094 222.203C227.884 224.654 225.523 227.01 223.271 229.412C219.543 233.581 215.65 237.468 211.497 241.206C209.254 243.225 206.988 245.735 204.599 247.683C204.239 247.976 202.686 249.203 202.517 249.434C201.225 251.214 198.755 252.46 197.491 254.01L197.393 254.13C197.245 254.305 197.09 254.474 196.931 254.639C196.426 255.163 195.747 255.454 195.17 255.968C187.174 263.155 179.029 270.171 170.736 277.01C170.031 277.583 168.665 279.153 167.991 279.452C165.059 280.846 162.454 280.706 159.353 280.797C154.116 280.952 150.923 277.109 147.315 273.868L138.948 266.408C129.084 257.506 119.37 248.44 109.809 239.21C109.083 238.506 108.421 237.738 107.715 237.054C106.49 235.864 105.17 234.664 103.999 233.42C103.31 232.688 102.712 231.892 101.978 231.117C101.031 230.116 99.9258 229.237 99.01 228.294C97.821 227.058 96.7048 225.585 95.492 224.383C92.8311 221.748 90.5366 218.941 88.1813 216.048C85.8214 213.15 83.4793 210.266 81.2616 207.247C80.0579 205.608 78.7333 204.038 77.5792 202.358C77.0626 201.625 76.5445 200.438 76.0147 199.612C75.4217 198.588 74.5762 197.619 73.9903 196.604C72.6257 194.24 71.2449 191.919 69.7614 189.627C69.4437 189.137 69.1998 188.052 68.8487 187.439C68.1894 186.29 67.5058 185.145 66.8759 183.982C66.5718 183.41 66.3694 182.168 66.0668 181.675C64.7822 179.582 63.9509 178.186 63.5552 175.713C63.455 175.087 62.2331 173.449 61.9872 172.544C61.5966 171.501 61.4812 170.349 61.2677 169.263C60.8741 167.264 60.364 165.53 59.6071 163.662C59.2641 162.816 59.2529 160.84 59.0849 159.887C58.8724 158.684 58.6574 157.389 58.6827 156.167C58.712 153.888 58.7409 151.614 58.7505 149.334C58.8654 147.697 58.585 145.732 58.7955 144.14C59.0602 142.137 59.3835 139.927 59.8024 137.958C60.024 136.916 60.3706 135.886 60.6474 134.87C61.1124 133.159 61.4539 131.466 61.9032 129.758C62.224 128.604 63.1069 127.174 63.6154 126.026C65.4334 121.921 67.6586 118.165 70.407 114.622C71.1058 113.727 72.0206 112.988 72.7684 112.145C74.5459 110.305 76.3456 107.979 78.3376 106.378C81.125 104.137 84.3278 102.003 87.4284 100.217C88.2556 99.7403 89.349 99.5085 90.1363 99.0633C92.3247 97.8252 94.6612 97.1527 96.9932 96.2612C98.7758 95.6475 101.946 95.1395 103.872 94.7974C104.573 94.6735 105.248 94.1958 105.742 94.1523C106.481 94.0628 107.307 94.1316 108.038 94.039C110.923 93.6732 113.763 93.7465 116.671 93.7349C119.458 93.7475 122.29 93.6787 125.056 93.9125C125.637 94.0203 126.881 93.8887 127.377 94.0496C128.394 94.38 129.036 94.677 130.141 94.8521C132.019 95.265 134.277 95.5604 136.071 96.2597C137.668 96.882 139.316 97.6268 140.98 98.1571C141.929 98.4591 143.099 99.3836 144.086 99.593C145.592 99.9123 146.5 100.858 147.757 101.652C150.928 103.635 153.869 105.81 156.671 108.292C158.243 109.684 159.275 110.285 160.528 112.138ZM160.782 266.891C161.852 266.069 162.776 265.001 163.864 264.181C165.851 262.681 167.644 261.061 169.518 259.437L176.945 253.073C182.178 248.686 187.325 244.196 192.381 239.605C193.232 238.839 194.068 237.918 194.916 237.176C197.063 235.298 199.088 233.357 201.279 231.521C202.004 230.914 202.851 229.819 203.588 229.169C204.575 228.297 205.565 227.511 206.512 226.589C211.581 221.637 216.384 216.419 220.903 210.955C221.5 210.237 222.221 209.539 222.804 208.814C223.722 207.673 224.745 206.408 225.58 205.179C226.278 204.153 227.908 202.601 228.255 201.544C228.43 200.715 229.467 200.152 229.886 199.473C231.499 196.855 233.508 194.562 234.919 191.816C235.261 191.148 235.883 190.491 236.252 189.808C236.711 189.037 237.093 188.176 237.549 187.409C239.491 184.149 241.393 180.926 242.772 177.376C243.065 176.622 243.62 175.85 243.934 175.067C245.263 171.737 246.432 168.332 247.539 164.922C248.36 162.402 249.16 159.509 249.497 156.884C249.708 155.189 249.623 153.273 249.713 151.596C249.998 146.249 249.018 141.57 247.032 136.606C246.741 135.881 246.253 135.089 245.911 134.349C245.298 133.014 244.723 131.596 243.971 130.327C242.58 128.208 240.975 126.184 239.414 124.191C236.657 120.813 233.543 117.907 229.896 115.53C228.932 114.902 228.109 114.14 227.032 113.549C225.948 112.955 224.891 112.457 223.781 111.92C222.821 111.455 221.582 110.594 220.628 110.239C218.962 109.618 217.094 109.223 215.361 108.847C214.22 108.599 212.942 107.945 211.865 107.828C209.865 107.439 202.545 107.24 200.531 107.613C200.02 107.652 199.47 107.662 198.97 107.775C198.222 107.944 197.527 108.264 196.765 108.397C194.384 108.812 191.866 109.147 189.55 109.843C188.049 110.294 186.622 110.986 185.19 111.619C183.834 112.219 182.401 112.744 181.093 113.44C177.439 115.384 172.775 119.255 170.097 122.418C168.036 124.852 166.073 127.596 164.44 130.332C163.655 131.648 163.124 133.132 162.228 134.385C161.961 134.759 161.797 134.941 161.333 134.979C160.772 135.026 160.309 134.754 159.902 134.386C158.324 132.957 156.797 129.572 155.484 127.715C154.663 126.554 153.672 125.519 152.74 124.45C152.035 123.641 151.376 122.79 150.661 121.991C148.113 119.148 142.564 115.087 139.242 113.284C137.948 112.582 136.587 112.044 135.253 111.43C133.889 110.801 132.766 110.137 131.288 109.766C129.608 109.344 127.876 109.032 126.174 108.7C125.284 108.527 124.355 108.546 123.529 108.14C121.892 107.333 112.962 107.299 111.234 107.834C110.836 107.957 110.465 108.192 110.061 108.291C109.273 108.485 108.395 108.483 107.588 108.609C106.533 108.775 105.492 109.09 104.443 109.299C103.397 109.507 102.276 109.612 101.258 109.924C99.8267 110.362 98.455 111.099 97.0889 111.706C95.9778 112.2 94.8282 112.637 93.7474 113.194C89.4907 115.386 85.2355 118.833 82.1506 122.513C81.3552 123.463 80.6894 124.513 79.9815 125.527C78.8911 127.088 77.7421 128.777 76.9239 130.498C76.3613 131.682 76.0329 132.984 75.4865 134.176C75.1834 134.837 74.6931 135.399 74.4609 136.097C73.8051 138.063 73.5653 140.208 73.1944 142.243C72.9217 143.739 72.476 145.373 72.4491 146.894C72.2548 148.085 72.1572 153.391 72.4188 154.556C72.5114 155.899 73.03 157.969 73.2643 159.387C73.622 160.704 73.5673 162.511 74.0394 163.76C75.0362 166.392 75.9788 169.44 76.9791 172.045C77.9607 174.602 79.341 177.145 80.5841 179.561C81.2029 180.765 81.6715 182.011 82.3778 183.169C84.3582 186.417 86.2808 189.492 88.4262 192.617C89.727 194.608 91.0911 196.769 92.5124 198.669C94.3678 201.149 96.425 203.558 98.241 206.077C98.921 207.021 100.284 208.091 100.887 208.978C101.9 210.469 102.729 211.53 104.065 212.762C105.944 214.764 107.741 216.933 109.693 218.869C112.333 221.485 114.918 224.163 117.47 226.867C118.194 227.638 118.67 227.656 119.422 228.44C121.368 230.465 123.335 232.481 125.321 234.465C126.038 235.182 127.299 235.898 128.133 236.769C128.892 237.562 129.594 238.427 130.342 239.176C131.94 240.845 133.796 242.285 135.445 243.881C136.803 245.195 137.906 246.38 139.436 247.552C140.36 248.26 141.28 249.609 142.265 250.357C143.058 251.07 144.088 251.663 144.823 252.429C146.193 253.859 147.393 255.147 149.054 256.253C149.38 256.471 149.949 257.468 150.361 257.772C150.797 258.165 151.685 258.453 152.064 258.873C154.746 261.85 157.758 264.29 160.782 266.891Z" fill="#FF2600"/>
</svg>
