<svg xmlns="http://www.w3.org/2000/svg" width="164" height="33" fill="none"><g fill="#007F32" clip-path="url(#a)"><path d="m52.14 24.732-1.56-1.08-1.597 4.65c-.457 1.333-1.225 1.945-2.27 1.945-.48 0-.947-.095-1.38-.372l.3-.589c.264.132.518.193.769.193.599 0 1.14-.433 1.465-1.38l1.752-5.092c-.781-.48-1.526-.684-2.378-.684-.998 0-1.908.707-2.2 1.73-.395 1.417.481 2.486 1.513 2.486h.118l-.203.626c-.06.014-.169.024-.253.024-1.239 0-2.799-1.37-2.064-3.482.467-1.347 1.729-2.148 3.156-2.148 1.225 0 2.379.575 3.076 1.079l1.993 1.441-.24.66zm6.219 2.354c-.359.518-.998.84-1.584.84h-.095c-.013.047-.037.108-.047.155-.443 1.404-1.634 2.138-2.426 2.138-.565 0-1.032-.277-1.13-.97-.48.564-1.238.97-1.813.97-.721 0-.975-.65-.65-1.573l.947-2.75h1.056l-.985 2.858c-.132.396 0 .518.227.518.386 0 1.08-.457 1.451-1.526l.637-1.85h1.055l-.734 2.124c-.24.683-.325 1.249.288 1.249.612 0 1.116-.626 1.38-1.32.024-.071.047-.095.061-.193-.518-.24-.876-.734-.697-1.394.108-.41.42-.589.744-.589.66 0 .877.735.735 1.635h.037c.433 0 .937-.24 1.177-.6l.359.278z"/><path d="M61.314 28.025c-.014.06-.024.108-.047.17-.42 1.2-1.38 2.03-2.464 2.03-1.262 0-1.776-1.212-1.37-2.366.433-1.211 1.452-2.077 2.619-2.077.984 0 1.418.781 1.37 1.658h.085c.396 0 .913-.264 1.164-.626l.358.277c-.372.541-1.069.876-1.719.937zm-.707-.047c-.494-.146-.768-.518-.673-1.022a.66.66 0 0 1 .3-.443.6.6 0 0 0-.277-.048c-.697 0-1.248.72-1.441 1.31-.288.89-.024 1.502.65 1.502.588 0 1.153-.467 1.44-1.296zm-.132-2.751h-.457l1.08-1.932h1.092l.061.132z"/><path d="M62.503 30.351c-.65 1.479-1.357 2.149-2.257 2.149-.612 0-.866-.48-.697-.937.17-.48.66-.745 1.983-1.333l.146-.396 1.356-3.939h1.056l-1.154 3.35-.145.386c.781-.41 1.502-.924 2.064-1.767l.358.278c-.697 1.032-1.62 1.681-2.713 2.21zm-1.238.542c-.589.253-1.07.467-1.178.758-.108.277.061.385.24.385.336 0 .65-.48.938-1.14zm2.006-6.52a.85.85 0 0 1 .816-.697c.395 0 .66.311.588.697a.846.846 0 0 1-.815.707c-.396 0-.66-.311-.589-.707m8.141 3.652c-.014.06-.024.108-.048.169-.42 1.2-1.38 2.03-2.463 2.03-1.262 0-1.776-1.212-1.37-2.365.433-1.212 1.451-2.078 2.619-2.078.984 0 1.417.782 1.37 1.658h.084c.396 0 .914-.264 1.164-.626l.359.278c-.372.541-1.07.876-1.719.937zm-.708-.048c-.493-.145-.768-.518-.673-1.022a.66.66 0 0 1 .301-.443.6.6 0 0 0-.277-.047c-.697 0-1.249.72-1.442 1.31-.287.889-.023 1.501.65 1.501.589 0 1.154-.467 1.441-1.296z"/><path d="M77.895 28.142c-.782 1.13-2.45 2.078-3.844 2.078-.551 0-.96-.217-1.116-.72l-.999 2.882h-1.055l2.233-6.486h1.056l-.17.494c.312-.362.721-.613 1.225-.613 1.07 0 1.502 1.212 1.093 2.365a4.2 4.2 0 0 1-.636 1.14c.744-.3 1.347-.696 1.85-1.417l.36.277zm-2.572-.132c.301-.89.085-1.502-.541-1.502-.386 0-.768.264-1.056.684l-.517 1.488c.094.41.348.589.707.589.66 0 1.177-.575 1.404-1.262z"/><path d="M78.233 28.886c-.095.288.023.386.179.386.457 0 1.248-.673 1.742-1.404l.359.277c-.636.948-1.79 2.078-2.785 2.078-.636 0-.815-.552-.494-1.489l.975-2.835h1.055l-1.031 2.99zm.216-4.513a.85.85 0 0 1 .815-.697c.396 0 .66.311.59.697a.846.846 0 0 1-.816.707c-.396 0-.66-.311-.589-.707"/><path d="M84.701 28.142c-.73 1.056-2.064 2.078-3.289 2.078-1.394 0-1.908-1.211-1.502-2.365.433-1.212 1.452-2.078 2.619-2.078.815 0 1.177.6.937 1.296-.254.72-1.262 1.442-2.51 1.692.132.301.433.504.97.504.708 0 1.8-.528 2.413-1.404l.359.277zm-3.711-.372a2 2 0 0 0-.095.443c1.8-.385 1.959-1.752 1.37-1.752-.528 0-1.08.72-1.272 1.31z"/><path d="M89.567 28.145c-.72 1.055-1.922 2.077-2.785 2.077-.744 0-1.116-.65-1.451-2.125l-.684 2.007h-1.055l2.883-8.405h1.055l-1.752 5.13c.564-.698 1.224-1.046 1.742-1.046.734 0 1.14.589.89 1.32-.217.636-.937 1.163-2.03 1.163.24.758.589 1.009.913 1.009.575 0 1.32-.528 1.922-1.404l.359.277zm-2.21-.89c.217-.396.146-.744-.169-.744-.385 0-.984.361-1.644 1.238.805.254 1.56-.024 1.814-.494"/><path d="M94.575 28.143c-.636.947-1.79 2.078-2.785 2.078-.599 0-.792-.494-.541-1.334-.613.877-1.31 1.334-1.97 1.334s-.66-.66-.493-1.154l1.092-3.17h1.056l-1.022 2.967c-.095.287-.013.41.146.41.169 0 .72-.18 1.634-1.682l.575-1.692h1.056l-1.032 2.99c-.095.288.023.386.18.386.456 0 1.248-.673 1.742-1.404l.362.278z"/><path d="M99.546 28.142c-.636.947-1.79 2.077-2.785 2.077-.636 0-.852-.527-.494-1.488l.589-1.587c.108-.288.013-.42-.146-.42-.169 0-.72.18-1.634 1.682l-.575 1.692h-1.056l1.442-4.203h1.055l-.42 1.212c.613-.877 1.32-1.334 1.97-1.334s.673.637.494 1.13l-.734 1.983c-.109.288.037.386.179.386.467 0 1.262-.673 1.753-1.404l.358.277zm10.279 0c-.636.947-1.79 2.077-2.785 2.077-.636 0-.852-.527-.494-1.488l.589-1.587c.108-.288.014-.42-.145-.42-.17 0-.721.18-1.635 1.692l-.575 1.681h-1.055l1.021-2.953c.095-.288.014-.42-.145-.42-.169 0-.721.18-1.634 1.682l-.575 1.692h-1.056l1.441-4.203h1.056l-.42 1.212c.613-.877 1.32-1.334 1.97-1.334s.659.637.494 1.13l-.072.204c.613-.877 1.31-1.334 1.97-1.334s.673.637.494 1.13l-.735 1.983c-.108.288.038.386.18.386.467 0 1.262-.673 1.752-1.404l.359.277z"/><path d="M114.012 28.142c-.735 1.056-2.064 2.078-3.289 2.078-1.394 0-1.908-1.211-1.502-2.365.433-1.212 1.451-2.078 2.619-2.078.815 0 1.177.6.937 1.296-.254.72-1.262 1.442-2.511 1.692.132.301.433.504.975.504.707 0 1.8-.528 2.412-1.404zm-3.712-.372a2 2 0 0 0-.095.443c1.8-.385 1.959-1.752 1.371-1.752-.528 0-1.08.72-1.273 1.31z"/><path d="m118.961 27.867.359.277c-.637.948-1.79 2.078-2.785 2.078-.457 0-.683-.288-.65-.806-.335.457-.781.806-1.38.806-1.069 0-1.502-1.212-1.093-2.366.433-1.21 1.465-2.077 2.45-2.077.433 0 .805.18.984.599l1.611-4.683h1.055l-2.473 7.194c-.095.287.024.385.179.385.457 0 1.249-.673 1.743-1.404zm-2.869.72.517-1.488c-.108-.41-.348-.59-.707-.59-.659 0-1.177.576-1.404 1.263-.287.89-.084 1.502.542 1.502.385 0 .757-.264 1.055-.683z"/><path d="M121.495 30.352c-.649 1.479-1.357 2.148-2.257 2.148-.612 0-.866-.48-.696-.937.169-.48.659-.744 1.982-1.333l.146-.396.396-1.154c-.599.877-1.31 1.32-1.959 1.32-.65 0-.66-.65-.494-1.14l1.021-2.967h1.056l-.947 2.75c-.095.288-.014.41.145.41.169 0 .721-.18 1.634-1.682l.504-1.478h1.056l-1.154 3.35-.145.385c.781-.41 1.502-.924 2.064-1.766l.358.277c-.697 1.032-1.62 1.682-2.713 2.21zm-1.238.541c-.589.254-1.069.467-1.178.758-.108.278.061.386.241.386.335 0 .649-.48.937-1.14z"/><path d="M127.16 27.074c-.085.24-.325.504-.65.707h-.386c.467-.768.311-1.272-.118-1.272-.575 0-1.13.673-1.32 1.262-.193.588-.24 1.502.937 1.502.708 0 1.814-.528 2.413-1.404l.358.277c-.72 1.056-2.063 2.078-3.288 2.078-1.394 0-1.908-1.212-1.502-2.365.433-1.212 1.451-2.078 2.618-2.078.816 0 1.178.6.938 1.296z"/><path d="M130.594 29.81c-.024.108-.048.24-.095.358-.386 1.117-1.742 2.331-2.93 2.331-.65 0-.89-.48-.734-.937.193-.551.852-.937 1.945-1.404.359-.145.829-.386.853-.396.013-.325-.146-.541-.433-.541s-.565.095-.89.349l-.301-.288 2.223-2.426h-1.178c-.253.636-.433.96-.659 1.286l-.241-.095-.118-.18c.24-.348.599-.947.721-1.969h2.75v.349l-2.077 2.378c.108-.037.227-.06.335-.06.494 0 .781.253.853.65.697-.444 1.079-.867 1.404-1.347l.358.277c-.385.565-.913 1.13-1.79 1.668zm-1.117.588c-.169.072-.287.132-.527.227-.792.325-1.428.673-1.574 1.022-.108.277.061.386.24.386.589 0 1.489-.768 1.861-1.635"/><path d="M137.354 28.142c-.636.947-1.79 2.077-2.784 2.077-.636 0-.853-.527-.494-1.488l.588-1.587c.109-.288.014-.42-.145-.42-.169 0-.721.18-1.634 1.682l-.575 1.692h-1.056l1.441-4.203h1.056l-.42 1.212c.613-.877 1.32-1.334 1.969-1.334.65 0 .674.637.494 1.13l-.734 1.983c-.108.288.037.386.18.386.467 0 1.262-.673 1.752-1.404l.359.277z"/><path d="M139.528 30.352c-.649 1.479-1.356 2.148-2.256 2.148-.613 0-.866-.48-.697-.937.169-.48.659-.744 1.982-1.333l.146-.396.396-1.154c-.599.877-1.31 1.32-1.959 1.32-.65 0-.66-.65-.494-1.14l1.022-2.967h1.055l-.947 2.75c-.095.288-.014.41.145.41.169 0 .721-.18 1.635-1.682l.504-1.478h1.055l-1.153 3.35-.146.385c.782-.41 1.502-.924 2.064-1.766l.359.277c-.697 1.032-1.621 1.682-2.714 2.21zm-1.238.541c-.589.254-1.069.467-1.177.758-.109.278.061.386.24.386.335 0 .65-.48.937-1.14zM21.838 13.686h2.686c0 1.194.985 1.77 2.074 1.77 1.005 0 1.983-.531 1.983-1.452s-1.123-1.221-2.46-1.532c-1.857-.46-4.114-.999-4.114-3.661 0-2.369 1.74-3.705 4.47-3.705s4.439 1.516 4.439 3.975h-2.633c0-1.062-.876-1.563-1.87-1.563-.864 0-1.74.366-1.74 1.174 0 .87 1.07 1.134 2.375 1.445 1.878.477 4.236 1.062 4.236 3.83s-2.118 3.962-4.669 3.962c-2.828 0-4.777-1.594-4.777-4.246zM26.25 1.645h2.734l-1.766 2.503h-1.946l.975-2.503zm23.01 3.691-3.799 12.353h-2.372l-2.75-6.926-2.673 6.926h-2.372L31.406 5.336h2.829l2.419 8.208 3.234-8.083h.9l3.323 8.08 2.365-8.205zm1.221 0h2.667v12.353h-2.667zm12.367 10.012h-4.903l-.846 2.34h-2.828L59.1 5.337h2.517L66.6 17.689h-2.893zm-4.07-2.332h3.23l-1.624-4.415zm16.259-5.2h-3.424v9.873h-2.666V7.816h-3.425v-2.48h9.518v2.48zm15.138 7.394v2.48H80.86v-.396L86 7.82h-4.845V5.34h8.813v.49l-5.091 9.383h5.294zm12.363-3.71c0 3.58-2.636 6.189-6.25 6.189H91.63V5.336h4.659c3.627 0 6.249 2.595 6.249 6.161zm-2.73 0c0-2.175-1.469-3.68-3.587-3.68h-1.928v7.392h1.928c2.115 0 3.587-1.55 3.587-3.711m8.794 1.972h-1.708v4.216h-2.666V5.336h4.973c2.467 0 4.307 1.705 4.307 4.087 0 1.617-.883 2.937-2.246 3.597l2.727 4.669h-2.978l-2.405-4.216zm-1.708-2.47h2.131c1.117 0 1.78-.673 1.78-1.597s-.667-1.6-1.78-1.6h-2.131zm7.687.513c0-3.668 2.815-6.446 6.574-6.446s6.544 2.765 6.544 6.446-2.798 6.445-6.544 6.445-6.574-2.778-6.574-6.445m10.418 0c0-2.24-1.651-3.925-3.844-3.925s-3.874 1.702-3.874 3.925 1.678 3.925 3.874 3.925S125 13.759 125 11.516m20.686-6.18-3.799 12.353h-2.372l-2.751-6.926-2.673 6.926h-2.371l-3.888-12.353h2.829l2.419 8.208 3.234-8.083h.9l3.323 8.08 2.365-8.205zm1.22 0h2.666v12.353h-2.666zm12.366 10.012h-4.902l-.846 2.34h-2.829l4.828-12.352h2.518l4.984 12.353h-2.893zm-4.07-2.332h3.231l-1.624-4.415zM9.032 5.95s.324.183.818 0c-.064.257-.714.308-.818 0m.351.48c.312 0 .565-.165.565-.375s-.253-.375-.565-.375c-.31 0-.565.169-.565.375 0 .207.254.376.565.376m-6.81 5.186c-.236-.214-.318-.511-.186-.667.125-.149.396-.118.623.068l-.291.27.186.139.244-.27c.155.196.196.429.084.561-.132.156-.43.112-.663-.101m14.311-4.931c-.426-.125-1.113-.027-1.201.115-.125.183-.5.867-.832.87.724.453.927-.081 1.09-.305.097-.189.293-.24.28-.274-.05-.115-.233-.01-.264.017-.071.061-.129.125-.17.112.068-.457 1.046-.311 1.097-.535m-3.345-.302c-.109-.16-.291-.214-.396-.03-.102.178.196.365.345.473.284-.139.504-.359.443-.494-.06-.136-.294-.125-.392.05M5.34 5.036c-.207.014.054-.379-.099-.761.244.17.535.738.098.761m-.254-2.04c-.4.349-.156.914.003 1.428a.8.8 0 0 0-.27-.142c.087.084 0 .572.097.795.099.223.505.315.667.21a.2.2 0 0 0 .068-.071c.595-.44-.697-1.716-.565-2.22M3.918 5.898a.2.2 0 0 0-.01.068q0 .066.027.125c-.088.048-.186.078-.22.02-.25-.436-.02-.21.2-.213m.087-.101c.153-.186.724-.2.724-.2-.341-.328-.835-.169-.788.183-.267-.105-.582-.332-.734-.244-.16.092.132.83.602.728a.12.12 0 0 0 .119.094.12.12 0 0 0 .115-.121.63.63 0 0 0 .487.169.1.1 0 0 0 .034-.007.73.73 0 0 1-.15.382c-.124.099-.199.18-.182.214.027.06.318-.044.646-.23.329-.19.569-.39.538-.447-.017-.037-.142-.01-.314.064-.122 0-.254-.024-.312-.115.207-.17.43-.457.542-.687.084.19.389.085.162-.084-.084-.065-.264.08-.545.132-.351.064-.76.054-.944.169m4.122-3.635c.423.318.829.129 1.367.41.537.28.257.626 1.065.835-1.12.755-1.1-.548-1.627-.687-.305-.138-1.188-.111-1.492-.392-.366-.338.132-1.164.132-1.164s.098.656.558 1.002m2.081 2.158c-.017-.044.088-.118.233-.162.143-.044.268-.044.285 0 .013.047-.092.118-.234.162s-.27.044-.284 0m1.377.94c-.112-.219-.819-.628-.636-.639.217-.013.585.423.636.64m-1.692-.662a.37.37 0 0 0 .298.176c.16.41-.007.653.115 1.147.092.368 1.604-.559 1.658-.944.04-.298-.575-.413-.917-.579a.35.35 0 0 0 .007-.233c-.047-.156-.335-.203-.643-.109-.304.095-.609.41-.518.545m.726 11.367c.846.369-.142 1.286-.738 1.039-.474-.197-.254-.62.119-.755.372-.135.653.092.49.23-.162.14-.311.068-.389-.176-.237.146-.24.42-.068.491.278.162 1.046-.41.413-.673-.541-.224-2.07.599-.974 1.072.944.406 1.529-.341 1.949-.616s.822.366.758 1.127c-.84-.447-2.16.234-2.893-.169-1.201-.66.48-1.942 1.326-1.573M6.687 6.029c-.159-.146-.013-.487-.494-.795.555-.125.968-.01 1.107.186.328.453-.359.842-.613.609m5.096 6.471c.034.105-.017.213-.115.243-.095.03-.203-.027-.237-.128s.017-.213.115-.244c.095-.03.203.027.237.129m-.37-.2c.028.085-.01.173-.084.196s-.155-.023-.183-.108.01-.17.085-.196c.075-.024.156.024.186.108m-.369.257a.15.15 0 0 1 .19.098.15.15 0 0 1-.095.19.15.15 0 0 1-.19-.095.15.15 0 0 1 .095-.19m1.12 1.303c.03-.29.105-.65-.2-1.106.566.111.908-.146 1.161-.034-.223-.5-.63-.72-1.116-.535.094-.335.165-.619.078-.92-.271.254-.65.4-.731.782-.112-.244.142-1.117-.697-1.347.017.575-.467 1.232.233 1.716-1.066.128-.707 1.228-.734 1.346.325-.128.87-.477 1.086-.646.115.352.819.389.924.744m-6.42.305c-.078-.203.169-.135.2.014.03.145-.146.132-.2-.014m-.802-.903c-.291 1.062.548.782.66.883-.965-.115-.755.73-.447.961.609.46.47-.426.575-.531.159.467.42.534.575.514.193-.024.382-.098.382-.166 0-.121-.372-.558-.54-.626.216.048 1.072.234.75-.226-.369-.531-.67-.393-.896-.071.044-.098.565-.748.341-.86-.22-.111-.906-.321-.595.71-.108-.138-.67-1.072-.805-.588m6.282-6.489c-.162-.142.254-.223.328-.105s-.213.203-.328.105m-.156.007c-.97.294-.345.754.136.697.2-.024.304-.39.233-.528.355.673 1.469-.057.26-.29.197.036.637-.16.613-.302-.034-.196-.24-.704-.812.166.037-.085.355-.62.091-.606-.264.017-.98.278-.396.613-.138-.048-.703-.22-.76-.044-.15.453.493.274.632.294M2.534 5.65c.095.098.132.21.091.25-.044.041-.155 0-.247-.1-.091-.099-.132-.21-.088-.251.044-.04.153 0 .247.101m.538 1.083a.294.294 0 0 0 .061-.413l-.568-.754a.297.297 0 0 0-.413-.061.294.294 0 0 0-.06.413l.564.754a.297.297 0 0 0 .413.061m8.576 3.872c.067-.105.162-.163.21-.132.047.03.03.142-.041.243-.068.105-.163.163-.21.132-.047-.03-.03-.138.04-.243m.866-.707a.273.273 0 0 0-.386.03l-.568.667a.273.273 0 1 0 .416.355l.568-.667a.273.273 0 0 0-.03-.385"/><path d="M6.155.527c2.933.562-1.425 3.868-1.201.91.619 1.438 2.283.051 1.2-.91"/><path d="M4.986.521c.805.034 1.343.099 1.116.69-.23.593-1.394.542-1.116-.69m6.166 1.059s.183-.508.721-.559c-.064.376-.166.491-.72.559m.637.206c-.176.19-.275.22-.613.054 0 0 .288-.223.613-.054m-1.48-.69c.072 0 .13.05.13.115 0 .064-.058.115-.13.115-.07 0-.128-.05-.128-.115 0-.064.058-.115.129-.115m1.49 2.872s-.22-.331-.051-.7c0 0 .369.457.05.7m-.822-1.844c1.458 1.042 1.377-1.018 1.214-1.542-1.77-.197-1.127.818-1.313 1.285-.121-.379-.223-.761-.433-.835-.362-.13-.379.148-.852.165.612.227.598.494.52.782-.375-.41-.964-.673-1.728-.528.203.788 1.028 1.018 1.65.805-.04.173-.043.349.085.532.244.348.731.3 1.005.294-.396.304-.196.737-.196.737a.98.98 0 0 0 .565-.52c-.01.223-.128.605.579 1.11.264-2.004-.23-1.588-.7-1.743-.19-.078-.312-.301-.407-.559l.014.014z"/><path d="M8.232 1.137c-.49.007-.673-.46-1.33-.592C9.132.74 10.33.102 10.726.97c-.258-.369-1.452.146-2.494.166m-.6 4.206c-.311-1.526-1.353-1.74-.873-2.643.305.64 1.858.71.873 2.643m7.298 5.798c.044.065-.044.2-.2.299-.152.098-.31.125-.355.06-.044-.064.044-.2.197-.297.152-.098.31-.125.355-.061m-.656-.734s-.457.236-.633.609l-.413-.592s.39-.728.795-.555zm.43 1.644c.294.064.436-.305.223-.572.132-.138.22-.314.203-.494-.034-.335-.298-.348-.562-.216.024-.24.223-.508.135-.721-.06-.149-.528-.602-.825-.673-.298-.068-.934.335-.985.676-.05.342.49 1.12.65 1.208.132.075.385-.05.524-.01-.054.115-.064.23-.01.325.112.186.325.206.528.132-.068.176-.109.301.115.348"/><path d="m13.652 10.446-.129.146-.091-.149.125-.122-.065-.145.16-.092.057.102.122-.112.064.217-.084.044.111.125-.152.125zm-8.532 6.83c-.097-.487-.006-1.12.346-1.51-.186.468-.26 1.009-.345 1.51m1.232-1.431c-.443.406-.801.954-1.106 1.468.132-.575.552-1.204 1.106-1.468m.582.554a6.6 6.6 0 0 0-1.529.944c.311-.494.94-.876 1.53-.944m-.047.735c-.477.06-.981.162-1.445.287.386-.284.978-.406 1.445-.287M5.27 15.655s-.27.01-.311.18c-.116.504-.092 1.613 0 1.725.074.091.876.129 1.593.034.284-.037.433-.393.433-.42 0 0 .298-.193.163-.45 0 0 .176-.294-.105-.483 0 0 .08-.342-.335-.4 0 0-.081-.375-.467-.247 0 0-.136-.3-.487-.098 0 0-.288-.213-.484.152m5.649-.914c.156-.49.541-.42.541-.42l-.19.491-.354-.071zm-.071.562.301.08s-.2.316-.19.41c.01.091.39.43.39.43s.643-.04.764-.061c.122-.02-.331-.457-.331-.457l-.176-.06.054-.112.332.162.165-.531-.243-.162.264-.735s-.775-.646-.998-.717l-.593.345-.409 1.133-.541-.098s-.088.606.064.82l.957-.065.187-.376zm-1.856 2.369c-.934-.396-1.225.172-2.06-.037.588-.48.923-1.553 2.06.037M12.18 5.358c.788.331 1.032-.146 1.732.03-.497.406-.778 1.31-1.732-.03m-1.496 4.044c-.274.038-.473-.013-.5-.223v-.054c.118-.25.467-.17.5.277m-1.021-.304c-.024.206.121.49.575.646q.191.065.399.085a3.2 3.2 0 0 1-.342.764c.2-.196.552-.2.914-.077a1.54 1.54 0 0 0 .169-.738 4.6 4.6 0 0 0 1.157-.416c-.274-.284-.047-.525-.139-.616a9 9 0 0 1-1.18.525c-.356-.549-1.191-.68-1.49-.332-.05.06-.067.115-.06.159M5.954 2.973c.17 1.015 1.922 1.38.04 2.043.542-.886-.95-1.306-.04-2.043m1.633 7.375c.115.7 1.33.954.027 1.414.376-.613-.656-.903-.027-1.414M1.483 6.135c-.06.254-.091.497.071.768.163.27.7.656.542 1.096-.647-.26-1.073-.507-1.357-.744.392.19.764.25.913.227-.078-.261-.463-.664-1.038-.748.73.267.764.605.764.605-.362-.023-.71-.213-.88-.318a1 1 0 0 1-.111-.148C.15 6.507-.083 5.462.076 5.468c.646.024 1.214-.19 1.63.339.254.321.339.68.579.97-.298.082-.616-.074-.802-.642M3.841 7.76l-.359-.596c-.06-.102-.017-.244.102-.315.118-.07.267-.047.328.058l.359.592c.06.101.017.244-.105.315-.119.07-.264.047-.325-.058m10.54.494-.494-.488c-.084-.084-.074-.233.024-.331.098-.099.247-.112.332-.028l.494.488c.084.084.077.233-.02.331-.099.098-.244.112-.329.027m1.519-1.954-.358-.596c-.061-.101-.017-.243.101-.315.119-.07.264-.047.329.058l.358.592c.061.102.017.244-.101.315-.119.07-.264.047-.325-.058M2.242 8.032s.15-.098.538-.206c-.152-.126-.392-.088-.538-.295.301-.027.704.044 1.083.66a1.3 1.3 0 0 0-.146-.315c-.22-.365-.73-.52-.632-.774.65.233.791.73 1.248 1.035.342.196 1.11.497 1.029 1.056-.38-.291-.69-.427-1.293-.41-.145 0-.145-.274-.771-.308.132-.28.436-.034.558-.101.027-.014.034-.058.02-.122-.226-.129-.575.125-.788-.007.085-.108.332-.139.403-.213-.186-.091-.48.206-.71 0M4.092 10.4c.03.007.067.01.101.003.017 0 .034-.01.051-.017.081.322.217.85.332 1.168a1.16 1.16 0 0 0-.799-.007c.108-.315.24-.833.315-1.15m2.33-.41h.038c.024-.003.048-.017.068-.027.07.294.23.92.358 1.276a1.1 1.1 0 0 0-.433-.072 1 1 0 0 0-.368.068c.121-.348.267-.944.338-1.242M3.56 11.787c.016.162.304.288.642.28.339-.006.603-.141.586-.304a.13.13 0 0 0-.024-.067c-.01-.281-.288-.93-.457-1.303.264.024.504-.328.738-.443a.33.33 0 0 0 .169.101c-.095.545-.254 1.3-.054 1.726-.108.034-.183.101-.183.183 0 .04.024.08.061.115-.497.047-.876.226-.876.433 0 .237.484.42 1.09.41.605-.011 1.095-.21 1.099-.447 0-.187-.298-.339-.72-.39.04-.033.067-.074.067-.118 0-.095-.105-.172-.247-.2.084-.179.254-.724-.071-1.735a.3.3 0 0 0 .128-.153c.274.044.62.319.87.105q.008-.002.017.007c-.152.338-.467 1.07-.484 1.38a.15.15 0 0 0-.03.105c.017.163.304.288.642.281.339-.007.603-.142.586-.304a.13.13 0 0 0-.024-.068c-.013-.318-.369-1.117-.521-1.438a.17.17 0 0 0 .044-.125c-.01-.081-.088-.135-.176-.122a.166.166 0 0 0-.135.18.13.13 0 0 0 .037.077c-.227.051-.487-.267-.795-.314 0-.017-.007-.03-.01-.048-.048-.216-.22-.355-.38-.314-.162.04-.25.25-.202.463-.237.132-.393.433-.572.548a.2.2 0 0 0 .02-.105c-.013-.104-.122-.172-.24-.152s-.203.122-.19.23a.17.17 0 0 0 .085.125c-.159.362-.433 1.012-.45 1.303a.15.15 0 0 0-.03.105m6.418.576c.027-.065-.068-.167-.213-.224-.146-.058-.285-.054-.315.013-.014.038.007.085.058.129a.5.5 0 0 0-.146.095c-.135.149-.25.396-.247.494.007.165.41.335.565.264.125-.082.183-.474.183-.47q0-.026.007-.051a.5.5 0 0 0-.058-.203c.081.006.149-.01.166-.051m4.357.126c-.234.027-.43-.01-.44-.081-.01-.075.173-.16.406-.186.233-.027.43.007.44.08.01.075-.173.16-.406.187m-1.54-.673c.305.45 1.015.96 1.344.974.473.02.988-.294.845-.49-.108-.15-.764-.234-1.092-.028-.42.264-.623-1.427-1.097-1.427-.253 0-.348.456 0 .967M7.511 6.477c.075-.586.433-1.32.653-1.374.281-.085 1.15-.277 1.313-1.052.474 1.526-.403 1.461-.755 1.573-.274.047-.44.278-.47.247-.111-.108.112-.301.16-.328.11-.068.216-.112.216-.17-.64-.01-.768 1.077-1.12 1.1m.931-1.736c.121-1.194-.887-1.41-1.181-2.003.798.061 3.231.623 1.18 2.003m5.752 4.25c.031.244.583.572.796.765.084-.349.66-1.096.352-1.306-.237-.16-.525.074-.504.386-.295-.302-.67-.068-.643.152m1.917-.959c.047.051-.007.18-.122.288s-.247.149-.298.098c-.047-.05.007-.18.126-.288.115-.104.247-.148.294-.098m.903-.02a.34.34 0 0 0 .078-.48.343.343 0 0 0-.48-.082l-.9.643a.347.347 0 0 0 .403.565l.9-.643zm.04-1.117c-.016-.007-.04-.531-.226-.917-.156-.315-.48-.5-.477-.507.067-.082.504-.085.653-.02.182.08.149 1.474.05 1.444"/><path d="M2.685 12.43a1.2 1.2 0 0 1-.383-.192c-.362-.382-.422-.985-.558-1.57a.67.67 0 0 1 .403-.589c.311 1.117 1.844-.345 1.857-.917-.937-.274-2.78-.057-1.911.823-.278.06-.396.203-.433.358-.102-.335-.24-.633-.494-.832.933-.281.866-.826.69-1.052-.315-.406-.95-.349-1.699-1.33-.121.49-.223 1.891-.098 2.29.119.386.751.515 1.046.132.328.437.41 1.036.487 1.597-.162-.111-.379-.067-.521-.172.518-.22.318-.68.166-.785-.281-.2-.542.237-1.208-.244.017.335-.196 1.939.96 1.063.17.216.454.267.644.423q.022.172.057.335c-.152-.075-.29.02-.457.186-.284-.948-1.279-.26-1.218.805.413-.03 1.019.068 1.276-.034.25-.101.26-.494-.014-.67.129-.142.312-.145.47-.044.133.447.38.755.951.748.623.037.87-.257 1.242-.027-.443-.27-.589-.257-.897-.27-.027 0-.213-.021-.358-.038zm.514-2.926c-.244.25-.653.264-.95.44.145-.376.595-.342.95-.44m-2.09-.247c-.167-.49-.593-.447-.627-.971.311.457.826.403.626.971m-.766 1.09c.288.23.603.094.59.497-.204-.28-.464-.17-.59-.497m.129 2.192c.288-.233.223-.568.612-.467-.318.135-.267.416-.612.467m7.754 2.201c-.139.694-.396.562-.396.562.193-.477.227-.67.227-.67l.17.105zm-.839.626c.05.02.112 0 .166-.04q.052.014.115.034c-.075.162-.149.314-.213.446-.075.173.115.43.426.569s.623.111.7-.061c0 0 .065-.278.203-.589l.102.04c.01.085.054.156.122.183.108.04.24-.044.29-.193.055-.148.007-.3-.1-.341-.089-.034-.19.017-.255.111q-.029 0-.064-.003a1.6 1.6 0 0 1 .403-.504c.081-.004.138-.027.159-.071.034-.078-.061-.203-.234-.332.038.048.054.088.04.119-.036.088-.307.054-.598-.078-.294-.132-.497-.311-.46-.4.013-.033.06-.047.125-.05-.22-.05-.386-.037-.42.04q-.022.063.041.146a2.5 2.5 0 0 1-.186.758c-.024-.01-.044-.024-.068-.034.051-.159.014-.311-.084-.348-.102-.038-.234.064-.291.23-.061.162-.024.328.078.368"/><path d="m9.056 14.603.01.091s-.278.014-.535-.19c0 0 .142-.138.362-.06 0 0 .48-1.198.853-.9.396.318-.69 1.062-.69 1.062m-1.329-.754c-.044.034-.155-.027-.253-.139-.099-.111-.14-.23-.099-.267.044-.034.156.027.254.139.098.111.142.23.098.267m-.714-1.3c-.121.43-.236 1.13.261 1.574.305.267.94-.213.602-.616-.338-.406-.673-.416-.863-.957m4.797-4.09c.026.101-.407.25-.464.125s.423-.257.463-.125m-.88-.25c-.254.338.396.926.92.436.227-.21.294-.677.014-1.211-.302.602-.779.558-.938.77m2.238-.477c.17.403.159.72.044 1.086-.278-.663-.044-1.086-.044-1.086m-.085 1.6c1.773-.568.048-1.847-.098-2.632-.937 1.008.024 2.264.098 2.633m3.458 2.948c-.295.112-.626-.11-.626-.11l.034-.532c.111.122.68.21.68.21l-.092.43zm-.356-1.123a.95.95 0 0 0-.507.264c-.156.17-.233.897-.088 1.239.115.267 1.292.169 1.38.088s.16-.86 0-1.178a.8.8 0 0 0-.236-.294.8.8 0 0 1 .07-.26q.087-.016.183-.051l.048-.43s-.254-.28-.883-.098c0 0-.054.196-.054.45 0 0 .044.027.114.057.014.037.02.109-.03.213m-.371-1.261c-.051-.044-.034-.152.04-.24.075-.091.176-.125.23-.081.051.044.034.152-.04.24s-.18.125-.23.081m-.247.17c-.088.077-.071.25-.109.294-.115.155-.287.31-.176.406.112.091.234-.098.366-.24.04-.045.206-.051.267-.15a.5.5 0 0 0 .058-.192c.101.057.22.054.277-.014l.768-.825c.135-.447-.413-.816-.738-.433l-.585.795c-.057.067-.04.179.034.27a.4.4 0 0 0-.166.085M8.533 12.32q-.01-.281-.013-.576c-.42.183-.816.376-.823.755-.01.808.755.984.755.984s-.467-.314-.338-.805c.04-.149.203-.257.42-.362M9.235 6.9a.15.15 0 0 1 .207-.057c.07.04.098.135.06.206a.15.15 0 0 1-.206.058.15.15 0 0 1-.06-.206M5.967 8.434c-.03 1.939 3.289 1.5 3.36 2.342.017.21-.081.365-.237.49q-.011.33-.027.65c.49-.234.964-.552.964-1.184 0-1.262-3.072-.887-3.102-2.311-.02-1.053 1.32-1.388 2.057-1.08.31.129.412.501.524.46 0-.131.014-.25.024-.355.24.088.463.132.494.071.132-.26-.528-1.018-.995-.75-1.049-.299-3.032-.062-3.059 1.667"/><path d="M10.4 7.98c-1.046.162-2.291.148-3.283-.035.132.47.694.84 1.398.914v.619q.172.065.345.135.062.025.125.054c.01-.42.013-.724.017-.805.697-.064 1.255-.42 1.394-.883M8.528 10.81c.02 1.387.07 2.97.19 2.96.118-.01.195-1.586.236-2.953 0-.081.007-.163.007-.244a1.4 1.4 0 0 0-.176-.091 4 4 0 0 0-.267-.105c0 .139.003.287.006.436m6.648-4.598c.14-.237.26-.497.102-.737-.139-.21-.541-.095-.541-.095s-.396-.139-.545.06c-.176.234-.068.498.057.745.055.112.01.298-.034.423-.142.42.034.636.112.538.136-.166.193-.575.376-.582.18.017.213.433.338.606.074.101.26-.105.146-.532-.034-.128-.072-.318-.007-.426zm-.717-.159c-.27-.05-.311-.514.01-.582 0 0-.196.227-.01.582M5.427 7.813l-.345-.257.437-.59.345.258zm.968-1.672a.1.1 0 0 0-.139.02l-.105.143-.308.027-.856 1.153-.111-.077a.12.12 0 0 0-.163.023.12.12 0 0 0 .024.163l.101.074h-.003l-.149.207a.345.345 0 0 0 .071.48.345.345 0 0 0 .48-.071l.15-.203.006-.01.092.067a.117.117 0 0 0 .162-.023.12.12 0 0 0-.024-.163l-.101-.074.856-1.154-.064-.304.101-.139a.1.1 0 0 0-.02-.139"/></g><defs><clipPath id="a"><path fill="#fff" d="M0 .5h163.031v32.001H0z"/></clipPath></defs></svg>