<?xml version="1.0" encoding="utf-8"?>
<!-- Generator: Adobe Illustrator 16.0.0, SVG Export Plug-In . SVG Version: 6.00 Build 0)  -->
<!DOCTYPE svg PUBLIC "-//W3C//DTD SVG 1.1//EN" "http://www.w3.org/Graphics/SVG/1.1/DTD/svg11.dtd">
<svg version="1.1" id="Layer_1" xmlns="http://www.w3.org/2000/svg" xmlns:xlink="http://www.w3.org/1999/xlink" x="0px" y="0px"
	 width="531.001px" height="139.276px" viewBox="0 0 531.001 139.276" enable-background="new 0 0 531.001 139.276"
	 xml:space="preserve">
<g>
	<path fill="#39A4DC" d="M102.552,79.199v16.987c0,6.017,5.486,8.761,12.344,8.761v14.877c-15.932,0-27.329-9.391-27.329-23.215
		v-17.41h-8.018V65.375h8.018v-6.964l14.985-10.868v17.832h12.662v13.824H102.552z"/>
	<path fill="#39A4DC" d="M120.118,65.376h14.982v26.486c0,7.702,4.961,13.084,10.973,13.084c6.651,0,12.875-3.272,12.875-13.084
		V65.376h14.878v53.289h-14.878v-3.799c-3.06,3.376-9.812,4.958-14.88,4.958c-14.032,0-23.951-12.028-23.951-26.695V65.376z"/>
	<path fill="#06538F" d="M377.417,92.072c0,15.194-12.766,27.751-28.065,27.751c-15.303,0-27.647-12.557-27.647-27.751
		c0-15.407,12.345-27.856,27.647-27.856C364.651,64.216,377.417,76.666,377.417,92.072 M362.12,92.072
		c0-7.492-5.486-12.873-12.768-12.873c-6.859,0-12.451,5.38-12.451,12.873c0,7.599,5.592,12.873,12.451,12.873
		C356.634,104.945,362.12,99.671,362.12,92.072"/>
</g>
<polygon fill="#06538F" points="438.435,65.376 453.104,65.376 426.618,120.034 414.59,94.921 402.56,120.034 373.65,65.376 
	390.213,65.376 402.982,91.016 407.835,80.675 400.661,65.376 415.011,65.376 427.252,90.911 "/>
<rect x="455.578" y="65.375" fill="#06538F" width="14.984" height="53.288"/>
<g>
	<path fill="#06538F" d="M491.24,92.074c0-7.495,5.594-12.875,12.452-12.875c2.849,0,5.275,0.951,7.386,2.533l-19.413,13.822
		C491.346,94.499,491.24,93.339,491.24,92.074 M504.959,104.946c-1.585,0-3.061-0.106-4.434-0.633l29.759-21.316
		c-3.272-9.918-13.404-18.781-26.592-18.781c-15.301,0-27.646,12.451-27.646,27.858c0,15.194,12.873,27.749,28.912,27.749
		c9.494,0,18.887-4.324,23.424-11.078l-11.923-9.181C514.032,103.363,509.494,104.946,504.959,104.946"/>
	<path fill="#06538F" d="M454.259,48.283c0-4.22,4.011-8.23,8.651-8.23c5.067,0,8.972,3.904,8.972,8.23
		c0,4.643-3.904,8.547-8.972,8.547C458.27,56.83,454.259,52.925,454.259,48.283"/>
</g>
<polygon fill="#06538F" points="179.035,118.664 202.778,79.2 182.204,79.2 182.204,65.375 226.096,65.375 203.938,104.417 
	225.781,104.417 225.781,118.664 "/>
<g>
	<path fill="#06538F" d="M281.341,40.052v78.611h-14.984v-3.798c-2.321,3.059-8.124,4.959-12.978,4.959
		c-14.565,0-26.17-12.557-26.17-27.752c0-15.407,11.924-27.858,26.17-27.858c4.745,0,10.657,2.323,12.978,4.854V40.052H281.341z
		 M266.991,92.073c0-7.492-5.17-12.873-12.134-12.873c-6.859,0-12.454,5.381-12.454,12.873c0,7.595,5.595,12.874,12.454,12.874
		C261.82,104.946,266.991,99.668,266.991,92.073"/>
	<path fill="#06538F" d="M320.485,79.938c-1.477-0.527-3.06-0.739-4.748-0.739c-5.803,0-10.764,4.327-10.764,12.875v26.589h-14.98
		V65.375h14.98v3.693c3.273-3.48,7.705-4.852,11.82-4.852c1.264,0,2.321,0,3.692,0.211V79.938z"/>
</g>
<g>
	<path fill="#F47734" d="M38.597,32.375c0.107-4.355,1.635-8.11,4.915-11.015c2.734-2.423,5.885-3.654,9.52-2.284
		c3.613,1.363,5.124,4.396,5.412,7.961c0.433,5.358-1.428,9.944-5.588,13.408c-2.565,2.138-5.56,3.02-8.796,1.654
		c-3.321-1.401-4.723-4.272-5.306-7.634C38.634,33.78,38.642,33.072,38.597,32.375"/>
	<path fill="#06538F" d="M144.731,23l13.393-22c0,0-75.45,0-116.764,70.277c-5.573,9.479-8.871,19.867-9.931,30.878
		c-0.828,8.608-0.215,17.071,2.929,25.217c0.674,1.743,1.254,3.564,2.594,4.975c-0.193-3.013-2.563-22.449,9.996-45.443
		c0.112-0.205,9.552-21.043,32.468-37.756C104.809,30.63,144.731,23,144.731,23"/>
	<path fill="#06538F" d="M50.462,86.471c-0.521,0.888-0.971,1.655-1.053,1.799c-0.372,0.686-0.749,1.41-1.125,2.153
		c1.305,7.158,1.603,14.614-0.562,21.633c-1.075,3.485-2.822,6.601-5.65,8.998c-0.778,0.657-1.604,1.209-2.491,1.609
		c-0.131,2.86-0.107,5.81,0.131,8.851l0.322,4.996c2.82,2.438,6.026,2.252,8.923-0.63c1.514-1.506,2.519-3.341,3.292-5.304
		c2.411-6.119,2.838-12.51,2.543-18.989C54.409,103.239,52.69,94.631,50.462,86.471"/>
	<path fill="#06538F" d="M18.299,30.089C12.993,25.444,7.266,21.502,1,18.463v16.035c17.108,5.727,30.637,16.653,39.459,32.773
		c0.632-1.055,1.37-2.282,2.078-3.444C36.778,50.944,29.017,39.469,18.299,30.089"/>
</g>
</svg>
